<svg width="290" height="258" viewBox="0 0 290 258" fill="none" xmlns="http://www.w3.org/2000/svg">
<path d="M128.055 72.4134C128.365 70.7096 128.365 70.7096 129.888 71.0193C134.096 71.8712 138.329 72.7231 142.537 73.575C142.821 73.6267 143.131 73.6009 143.415 73.6267C143.596 73.6783 143.776 73.5234 143.957 73.6783C145.351 74.7109 147.107 75.0981 148.475 76.2082C148.785 76.4664 149.017 77.0601 149.611 76.7245C149.895 76.8278 150.075 77.0343 150.256 77.2408C153.251 80.1837 154.774 83.7721 155.135 87.9025C155.264 89.2449 154.98 90.5615 154.748 91.878C153.689 98.2028 152.708 104.527 152.141 110.904C151.831 114.363 151.753 117.848 150.824 121.23C150.101 123.889 149.249 126.496 147.881 128.923C147.468 129.672 147.52 130.369 147.752 131.143C149.946 138.655 152.218 146.142 154.438 153.628C157.045 162.354 159.627 171.079 162.26 179.805C162.621 181.663 162.208 183.496 162.028 185.303C161.537 190.544 161.021 195.81 160.634 201.051C160.401 204.329 161.202 207.53 162.673 210.499C163.912 213.003 165.177 215.481 166.494 217.934C166.752 218.424 167.217 218.941 166.804 219.586C166.416 219.818 166.003 219.844 165.59 219.767C163.835 219.483 162.054 219.586 160.272 219.689C153.251 219.534 146.229 219.663 139.233 219.612C138.665 219.612 138.123 219.638 137.555 219.586C135.748 219.689 133.915 219.483 132.108 219.689C131.54 219.844 131.643 220.335 131.643 220.722C131.617 221.677 131.643 222.658 131.617 223.639C131.617 224.104 131.643 224.568 131.256 224.93C130.585 224.723 130.688 224.155 130.636 223.665C130.585 222.89 130.611 222.116 130.611 221.341C130.636 220.489 130.585 219.741 129.681 219.276C129.088 218.966 129.087 218.269 129.062 217.676C129.036 215.92 129.062 214.165 129.036 212.383C129.036 211.893 129.139 211.351 128.674 210.835C128.184 211.273 128.313 211.867 128.313 212.358C128.287 215.972 128.313 219.586 128.287 223.174C128.287 223.794 128.545 224.594 127.616 224.878C127.177 224.362 127.306 223.742 127.306 223.148C127.306 219.457 127.306 215.765 127.28 212.1C127.28 211.609 127.513 211.041 126.945 210.705C125.938 210.422 124.931 210.602 123.924 210.551C123.434 210.525 122.918 210.551 122.453 210.267C121.498 209.131 121.782 207.711 121.653 206.446C120.517 195.294 119.407 184.142 118.271 172.964C117.419 164.548 116.593 156.106 115.741 147.691C115.664 146.916 115.586 146.09 116.645 145.832C117.78 145.548 118.736 145.883 119.174 146.813C119.381 147.252 119.484 147.716 119.613 148.155C122.272 158.714 124.983 169.246 127.719 179.779C128.081 181.147 128.339 182.541 128.674 183.935C128.468 183.161 128.313 182.412 128.339 181.612C128.52 172.835 127.952 164.083 128.055 155.306C128.132 148.775 127.616 142.244 127.823 135.712C128.107 134.37 127.564 133.544 126.403 132.744C117.187 126.341 107.971 119.913 98.7546 113.485C98.3932 113.227 98.0318 112.995 97.8511 112.582C97.6704 111.239 98.703 110.31 99.0902 109.174C101.052 105.302 103.014 101.43 104.899 97.5058C105.596 96.9636 106.112 97.4799 106.628 97.8155C110.501 100.216 114.27 102.746 118.116 105.199C121.007 107.057 123.847 108.968 126.764 110.801C127.048 110.981 127.332 111.317 127.668 111.059C127.952 110.852 127.823 110.517 127.797 110.207C127.461 106.877 127.539 103.547 127.771 100.191C128.804 96.7571 129.217 93.1946 129.991 89.6837C130.146 88.9867 130.198 88.2381 130.404 87.5411C131.179 84.9596 130.533 82.9202 128.132 81.552C127.719 81.0356 127.797 80.4161 127.797 79.8481C127.797 77.3957 127.9 74.9174 128.055 72.4134Z" fill="#6DB5DE"/>
<path d="M42.3224 42.9323C43.2775 36.401 44.2586 29.844 45.2137 23.3127C45.5493 20.9635 46.6593 20.1116 48.9827 20.4472C63.9814 22.6415 78.98 24.81 93.9528 27.0043C97.8251 27.5722 101.672 28.166 105.544 28.7339C107.403 29.0179 108.306 30.257 108.048 32.0899C107.945 32.8385 107.712 33.613 107.893 34.3875C107.841 36.8399 107.325 39.2407 106.964 41.6673C106.86 43.2421 106.422 44.791 106.473 46.3915C106.215 46.9336 106.163 47.5016 106.189 48.0953C105.544 50.5994 105.415 53.2067 104.898 55.7366C104.563 59.1442 103.892 62.4744 103.479 65.882C103.427 66.3467 103.35 66.8114 103.375 67.276C102.472 71.7937 101.956 76.363 101.259 80.9065C100.845 83.7461 100.407 86.5858 99.9936 89.4513C99.942 89.8643 99.8903 90.3032 99.5805 90.6388C98.8577 91.1035 98.393 90.5355 97.9025 90.1741C96.2246 88.9092 94.3142 88.2896 92.2232 88.2896C91.7069 88.3154 91.3455 87.954 90.9841 87.6701C90.5194 87.3086 90.1322 87.3603 89.7191 87.6959C88.1702 86.7665 86.4664 86.147 84.8142 85.5016C83.4977 84.9853 82.2844 85.1918 81.2001 86.0695C80.8129 86.2244 80.3482 86.3018 80.3482 86.8698C79.9868 87.4635 79.5996 88.0315 79.0833 88.4961C78.6702 88.7543 78.4895 89.1157 78.4895 89.6062C77.7151 92.6266 78.7735 94.7692 81.3292 96.4989C86.2599 99.8548 91.1648 103.211 96.0439 106.618C96.586 107.006 97.283 107.29 97.283 108.142C97.2056 108.942 97.0249 109.716 96.8442 110.517C96.5602 111.911 95.7341 112.762 94.3143 112.995C91.2422 113.046 88.2735 112.349 85.2531 111.911C75.2626 110.465 65.2979 108.968 55.3074 107.548C54.7911 107.47 54.3007 107.367 53.7844 107.264C53.2164 107.057 52.6227 107.083 52.0548 107.031C46.8917 106.283 41.7286 105.56 36.5656 104.734C34.4488 104.398 33.5968 103.392 33.4678 101.326C33.4678 100.887 33.4678 100.423 33.5194 99.9839C34.3971 95.0532 34.9909 90.0709 35.7653 85.1143C35.8686 84.5206 35.9202 83.9268 36.2042 83.3847C36.643 82.8168 37.211 83.1008 37.7531 83.1266C39.5085 83.2298 41.0058 82.8942 41.8061 81.0872C42.1159 80.7258 42.0384 80.2611 42.0384 79.8222C42.6322 79.0994 42.7613 78.1959 43.0194 77.3182C43.2776 77.0084 43.4841 76.6986 43.4583 76.2855C43.7164 73.7815 42.3482 71.613 39.6376 70.2448C39.0955 69.9608 38.3727 69.8834 38.2178 69.0831C38.6566 64.7203 39.4053 60.4092 40.0507 56.0722C40.3605 53.9812 40.5411 51.8902 41.0316 49.825C41.2123 49.3603 41.2381 48.8698 41.2381 48.3535C41.393 47.0111 41.5738 45.6687 41.8577 44.3521C41.9868 43.8616 41.9868 43.3195 42.3224 42.9323Z" fill="#202B6D"/>
<path d="M213.684 173.609C213.374 174.125 213.684 174.615 213.787 175.08C217.84 191.524 221.893 207.969 225.946 224.439C225.559 225.162 224.862 225.058 224.243 225.058C222.048 225.084 219.854 225.136 217.685 225.058C212.961 224.878 208.263 225.497 203.539 225.291C202.325 225.291 201.138 225.291 199.925 225.291C198.892 225.291 198.272 224.852 198.143 223.819C197.937 221.909 197.421 220.05 197.627 218.062C197.808 216.307 197.24 214.577 196.956 212.848C194.297 195.577 191.664 178.307 188.979 161.011C188.85 160.185 188.824 159.281 188.205 158.61C187.456 155.177 187.094 151.692 186.527 148.232C186.01 145.057 185.546 141.882 185.055 138.706C184.952 138.087 184.797 137.442 185.184 136.848C186.397 136.228 187.714 136.564 188.979 136.538C191.044 136.486 191.044 136.512 191.431 134.447C191.896 131.736 192.412 129.052 192.851 126.341C193.058 125.076 192.929 124.921 191.638 124.895C190.192 124.87 188.721 124.895 187.275 124.87C186.733 124.87 186.139 124.921 185.7 124.482C185.391 122.624 185.649 120.739 185.778 118.88C185.933 116.66 186.01 114.44 186.139 112.22C186.32 108.967 186.475 105.74 186.707 102.488C186.733 102.178 186.785 101.894 186.94 101.636C187.043 101.481 187.172 101.429 187.327 101.455C187.921 102.101 187.688 102.927 187.714 103.675C187.791 106.024 188.798 107.031 191.122 107.057C194.478 107.083 196.052 104.966 195.046 101.713C194.762 100.758 194.142 100.035 193.135 99.7771C191.974 99.4932 191.561 98.7962 191.586 97.6345C191.612 92.7812 191.586 87.9279 191.612 83.0747C191.612 81.5774 191.896 81.2934 193.316 81.2676C195.665 81.2418 198.04 81.1127 200.389 81.3451C202.067 81.5 203.694 81.9388 205.165 82.7907C206.017 83.2554 206.327 83.0231 206.301 82.0937C206.275 80.8546 206.275 79.5896 206.301 78.3505C206.301 77.86 206.249 77.2921 206.74 76.9307C206.817 76.9565 206.946 77.0081 206.946 77.0597C207.153 79.3057 206.998 81.5516 207.05 83.7459C207.05 81.9388 207.024 80.1059 207.075 78.2472C207.075 77.8084 206.843 77.2921 207.308 76.9307C207.927 77.2663 207.798 77.8858 207.798 78.4279C207.824 79.9769 207.824 81.5258 207.798 83.0747C207.772 84.004 208.082 84.7269 208.728 85.3722C210.999 87.6182 211.903 90.2771 211.722 93.5298C211.438 98.7962 211.025 104.062 210.87 109.355C210.87 109.819 210.767 110.284 210.638 110.749C210.612 110.981 210.612 111.213 210.612 111.42C210.535 115.576 210.147 119.732 209.941 123.863C209.838 126.005 209.605 128.148 209.605 130.291C209.605 132.046 209.296 133.698 208.34 135.221C207.902 135.893 207.772 136.641 207.772 137.442C207.772 141.056 207.772 144.644 207.772 148.258C207.772 150.039 208.366 151.717 208.779 153.421C210.328 159.849 212.006 166.251 213.503 172.679C213.684 173.015 213.71 173.299 213.684 173.609Z" fill="#6DB5DE"/>
<path d="M128.209 135.376C128.313 145.083 128.416 154.815 128.545 164.522C128.648 171.363 128.777 178.178 128.906 185.071C128.468 184.813 128.519 184.348 128.416 183.961C125.318 171.957 122.246 159.927 119.174 147.923C118.916 146.864 118.735 146.012 117.238 146.167C116.257 146.27 116.025 146.451 116.128 147.432C117.238 158.042 118.322 168.626 119.406 179.236C120.413 189.124 121.368 198.985 122.349 208.872C122.401 209.337 122.504 209.802 122.582 210.266C123.021 210.705 122.969 211.299 123.02 211.841C123.459 216.023 124.001 220.205 124.26 224.413C124.26 224.723 124.389 225.007 124.414 225.317C124.724 228.776 125.086 232.235 125.447 235.694C125.473 236.004 125.499 236.314 125.499 236.624C126.041 241.632 126.506 246.666 127.022 251.674C127.048 251.984 127.048 252.294 127.048 252.603C127.357 253.868 127.306 255.159 127.487 256.45C127.564 256.94 127.59 257.482 127.073 257.844C125.783 258.025 124.518 257.895 123.227 257.895C117.651 257.921 112.101 257.921 106.525 257.895C105.828 257.895 105.053 258.05 104.485 257.405C104.537 255.753 104.33 254.126 104.201 252.474C103.943 252.242 103.917 251.932 103.866 251.622C103.375 246.64 103.143 241.658 102.833 236.675C102.833 236.366 102.807 236.056 102.833 235.746C102.394 232.287 102.368 228.776 102.084 225.291C102.084 225.059 102.084 224.826 102.084 224.594C101.645 219.895 101.491 215.171 101.052 210.473C100.716 203.967 100.174 197.462 99.7868 190.957C99.5028 186.361 99.2189 181.792 98.9091 177.223C98.5219 171.363 98.1604 165.503 97.7216 159.617C97.386 155.048 97.1537 150.453 96.8439 145.883C96.5341 141.34 96.3534 136.796 95.9145 132.279C95.8887 131.891 95.8887 131.504 95.8887 131.117C95.8887 130.781 95.9661 130.472 96.1468 130.213C96.6631 129.775 97.2827 129.904 97.8765 130.007C107.531 131.607 117.16 133.208 126.815 134.86C127.332 134.886 127.848 134.963 128.209 135.376Z" fill="#8F3600"/>
<path d="M185.235 136.925C185.88 141.288 186.526 145.651 187.171 149.988C187.61 152.853 188.049 155.745 188.514 158.61C188.462 158.842 188.281 158.972 188.075 159.075C186.784 159.101 186.371 159.875 186.242 161.063C185.674 166.716 184.977 172.344 184.332 177.971C183.609 184.425 182.86 190.879 182.137 197.307C181.957 198.804 181.827 200.302 181.595 201.799C181.492 202.496 181.724 203.064 182.06 203.632C184.977 208.563 187.791 213.545 190.734 218.424C193.599 223.613 196.697 228.647 199.614 233.784C201.86 237.734 204.313 241.554 206.378 245.607C206.378 245.659 206.378 245.736 206.378 245.788C205.939 246.356 206.274 246.795 206.533 247.311C208.185 250.28 209.837 253.274 211.489 256.243C211.696 256.605 211.851 257.018 212.031 257.379C211.644 257.792 211.102 257.818 210.586 257.818C202.97 257.818 195.329 257.844 187.713 257.818C187.455 257.818 187.197 257.792 186.939 257.741C186.319 257.611 186.113 257.095 185.855 256.605C185.158 255.288 184.59 253.946 183.789 252.681C183.635 252.397 183.48 252.113 183.351 251.829C180.821 246.666 177.981 241.658 175.425 236.469C175.322 236.236 175.193 236.03 175.09 235.798C173.179 232.313 171.424 228.776 169.565 225.265C169.462 225.033 169.333 224.826 169.23 224.594C168.636 223.226 167.758 222.012 167.139 220.67C166.958 220.257 166.648 219.87 166.777 219.353C165.512 216.901 164.299 214.448 162.982 212.022C160.427 207.401 159.936 202.47 160.504 197.281C161.149 191.473 161.717 185.664 162.001 179.83C161.666 176.164 162.414 172.576 162.673 168.936C163.034 163.928 163.524 158.946 164.015 153.938C164.299 151.95 164.376 149.936 164.557 147.923C164.841 145.522 165.048 143.095 165.228 140.694C165.306 139.429 165.306 138.139 165.796 136.925C166.287 136.409 166.958 136.409 167.577 136.409C172.921 136.383 178.265 136.383 183.609 136.409C184.228 136.486 184.796 136.461 185.235 136.925Z" fill="#E74F4F"/>
<path d="M186.604 257.405C195.097 257.405 203.591 257.405 212.084 257.405C211.826 260.141 210.974 262.749 210.406 265.433C209.709 268.712 208.909 271.965 208.237 275.243C208.057 276.121 207.721 276.379 206.817 276.379C194.091 276.327 181.364 276.302 168.663 276.302C140.085 276.302 111.482 276.327 82.9044 276.353C81.2523 276.353 81.2264 276.353 81.5362 274.675C82.1041 271.758 83.524 269.461 86.183 267.912C91.8623 264.633 97.49 261.277 103.144 257.947C103.582 257.689 103.995 257.353 104.538 257.353C111.611 257.353 118.71 257.379 125.783 257.379C126.248 257.379 126.739 257.302 127.152 257.56C127.591 257.818 127.513 258.308 127.565 258.721C127.926 261.174 128.055 263.678 128.313 266.13C128.442 267.473 128.572 267.576 129.759 266.853C134.741 263.884 139.698 260.89 144.654 257.921C145.274 257.534 145.894 257.147 146.642 257.069C148.501 256.656 150.411 256.734 152.296 256.734C157.872 256.759 163.474 256.656 169.05 256.785C169.928 256.889 170.237 257.482 170.444 258.257C171.27 261.251 171.993 264.246 172.793 267.24C173.129 268.505 173.154 268.531 174.135 267.705C177.827 264.556 181.467 261.355 185.158 258.179C185.623 257.844 185.985 257.405 186.604 257.405Z" fill="black"/>
<path d="M185.235 136.925C179.22 136.925 173.205 136.899 167.19 136.899C166.752 136.899 166.313 136.847 165.977 137.209C165.59 137.261 165.177 137.261 164.79 137.261C164.583 137.261 164.377 137.261 164.144 137.286C161.666 137.286 159.188 137.39 156.709 137.002C154.205 136.615 152.502 134.55 152.889 132.304C153.947 131.53 155.212 132.175 156.451 131.788C155.238 131.323 153.921 132.02 152.889 131.22C152.579 130.574 152.579 129.929 152.863 129.284C153.379 128.664 154.102 128.871 154.747 128.819C155.29 128.767 155.858 128.896 156.477 128.664C155.315 128.277 154.102 128.793 153.069 128.251C152.76 127.012 153.586 126.263 154.438 125.773C155.444 125.179 155.496 124.585 155.109 123.578C154.541 122.107 154.618 120.532 154.928 119.009C156.322 112.323 157.768 105.663 158.981 98.9249C159.497 96.1369 160.014 93.3489 160.504 90.5608C160.633 89.8896 160.582 89.2959 160.272 88.7021C157.794 83.7972 155.625 78.7374 153.095 73.8584C152.656 73.0065 152.14 72.232 151.779 71.3543C151.701 70.838 151.753 70.3475 151.985 69.8828C152.553 68.4888 153.534 67.7402 155.057 67.7402C156.116 68.4888 156.477 69.7279 157.045 70.7864C157.819 72.232 158.62 73.6777 159.601 74.9942C158.826 73.3162 157.974 71.6641 157.097 70.0119C156.658 69.2116 155.935 68.5146 156.116 67.4562C157.045 67.198 157.974 66.9399 158.93 66.6817C159.549 67.0173 159.781 67.6369 160.065 68.2048C160.84 69.8312 161.821 71.3543 162.621 72.9806C162.828 73.3679 163.008 73.8325 163.602 74.1681C162.569 71.9222 161.356 69.9603 160.324 67.895C160.091 67.4562 159.652 67.069 159.962 66.501C161.563 66.3978 162.957 67.0173 164.299 67.7918C164.531 67.8434 164.686 67.9983 164.764 68.2048C165.564 70.6573 166.906 72.7741 168.584 74.7103C168.636 75.3556 169.049 75.8461 169.281 76.4141C169.385 76.6206 169.488 76.8271 169.565 77.0336C169.772 77.6532 170.082 78.2211 170.391 78.8407C170.805 78.247 170.701 77.5241 170.934 76.9304C171.063 76.698 171.192 76.4399 171.502 76.3883C172.844 76.6464 174.238 76.4399 175.529 76.982C175.838 77.6532 175.58 78.3244 175.477 78.9956C175.193 80.5445 174.909 82.1192 174.703 83.6681C174.057 86.5853 173.696 89.5798 172.999 92.497C172.973 92.9358 172.818 93.323 172.766 93.7619C171.94 98.7184 171.088 103.701 170.314 108.683C170.056 109.716 169.953 110.774 169.772 111.833C169.256 114.724 168.765 117.641 168.223 120.532C168.042 121.462 168.352 122.004 169.23 122.288C170.004 122.546 170.779 122.804 171.553 123.036C173.18 123.759 174.909 123.914 176.69 123.914C179.324 123.914 181.983 124.25 184.616 124.146C185.055 124.121 185.468 124.224 185.829 124.456C188.023 124.482 190.192 124.559 192.386 124.559C193.264 124.559 193.574 124.74 193.367 125.747C192.67 129.18 192.076 132.64 191.482 136.099C191.379 136.77 191.121 136.951 190.476 136.951C188.746 136.899 186.991 136.925 185.235 136.925Z" fill="#FD9993"/>
<path d="M99.3481 90.7676C99.916 88.6508 100.071 86.4823 100.381 84.3396C101.207 78.9442 101.955 73.523 102.73 68.1018C102.781 67.7146 103.014 67.5081 103.195 67.2241C104.021 65.985 105.286 66.0108 106.525 66.1657C108.074 66.3464 109.571 66.6562 111.094 66.9918C112.462 67.3016 112.565 67.4565 112.307 68.8505C111.559 72.9551 110.733 77.0339 109.906 81.1127C109.726 81.9646 109.571 82.7907 109.442 83.6426C109.287 84.4429 108.926 84.9076 107.996 84.9592C106.267 85.0624 105.389 85.9143 105.002 87.644C104.821 88.4442 104.614 89.2445 104.769 90.0706C105.079 91.6711 106.602 92.6263 109.132 92.7812C110.552 92.8586 111.688 92.0067 112.127 90.4578C112.282 89.8899 112.385 89.2961 112.462 88.6766C112.617 87.2309 112.127 86.1209 110.758 85.5529C109.777 85.1399 109.545 84.4687 109.752 83.4877C110.784 78.5312 111.662 73.523 112.669 68.5665C112.772 68.0502 112.875 67.5339 113.546 67.4823C116.593 67.9211 119.561 68.6698 122.582 69.2119C122.969 69.2893 123.305 69.4442 123.589 69.7282C124.415 69.9089 125.267 70.1671 126.093 70.2445C127.125 70.3478 127.435 70.6834 127.177 71.7676C126.532 74.5815 125.989 77.3953 125.473 80.235C125.344 81.0095 125.112 81.0353 124.415 80.9062C121.059 80.3124 119.329 81.6032 118.709 84.9592C117.987 88.8057 117.212 92.6263 116.464 96.447C115.999 98.8736 116.954 100.861 119.019 101.61C119.432 101.765 119.923 101.997 120.155 101.481C120.413 100.861 119.794 100.887 119.406 100.706C117.832 100.061 117.083 98.8478 117.393 97.1181C118.193 92.807 119.019 88.5217 119.897 84.2364C120.31 82.3002 121.833 81.3967 123.769 81.8097C125.189 82.0937 126.609 82.4293 128.029 82.7391C128.39 83.3586 128.39 84.0556 128.39 84.7268C128.416 88.057 128.39 91.413 128.055 94.7431C127.771 96.1372 127.512 97.5054 127.229 98.8994C126.841 100.732 125.809 101.584 123.898 101.61C123.537 101.61 123.046 101.455 122.969 101.997C122.917 102.617 123.434 102.591 123.873 102.617C125.68 102.668 126.996 101.894 127.796 100.268C128.08 100.474 128.055 100.784 128.055 101.094C128.08 104.475 128.106 107.883 128.106 111.265C128.106 111.471 128.158 111.704 127.822 111.936C125.267 110.284 122.659 108.58 120.026 106.902C115.431 103.933 110.81 100.939 106.215 97.9701C105.879 97.7377 105.518 97.2214 105.027 97.8152C104.408 97.8668 103.969 97.4796 103.608 97.0665C102.136 95.2336 100.794 93.2975 99.4255 91.3872C99.3739 91.2065 99.2964 90.9999 99.3481 90.7676Z" fill="black"/>
<path d="M203.255 224.929C210.225 224.826 217.195 224.723 224.165 224.594C224.759 224.594 225.379 224.671 225.947 224.413C226.928 228.208 227.909 232.003 228.89 235.798C229.174 236.03 229.354 236.314 229.432 236.65C230.697 241.632 231.936 246.64 233.175 251.622C233.227 251.906 233.227 252.19 233.046 252.423C233.381 253.791 233.614 255.185 234.053 256.527C234.414 257.637 234.001 257.715 233.097 257.689C231.6 257.637 230.103 257.689 228.606 257.715C228.296 257.87 227.934 257.87 227.599 257.87C223.417 257.818 219.209 257.87 215.027 257.844C214.407 257.844 213.736 257.947 213.194 257.431C211.206 253.791 209.218 250.151 207.231 246.511C207.05 246.175 206.818 245.866 206.379 245.788L206.405 245.814C205.475 243.207 205.32 240.419 204.856 237.734C204.21 234.042 203.642 230.351 203.074 226.659C203.023 226.091 202.868 225.472 203.255 224.929Z" fill="#E74F4F"/>
<path d="M96.2507 130.962C96.6895 137.39 97.1283 143.818 97.5672 150.22C98.1609 158.868 98.7289 167.516 99.2969 176.164C99.7615 183.238 100.226 190.311 100.665 197.359C100.949 201.696 101.181 206.007 101.439 210.344C101.052 210.86 100.459 210.834 99.9164 210.834C96.7928 210.86 93.6433 210.86 90.5197 210.834C88.7901 210.808 88.4803 210.447 88.6093 208.743C88.79 206.601 88.945 204.458 89.2289 202.341C89.2806 202.083 89.3838 201.876 89.5645 201.67C89.7968 199.501 90.0808 197.333 90.2873 195.164C90.752 190.259 91.1908 185.38 91.6297 180.476C91.6555 180.062 91.6555 179.624 91.6555 179.185C91.0618 178.772 90.4164 178.952 89.771 178.952C63.1297 178.952 36.4626 178.952 9.8213 178.927C9.22755 178.927 8.42727 179.314 8.04004 178.436C8.73705 177.842 9.58895 178.023 10.3892 178.023C24.949 178.023 39.5088 178.023 54.0686 178.023C65.6596 178.023 77.2765 178.023 88.8675 178.023C89.3838 178.023 89.9001 178.023 90.4164 177.997C91.0876 177.971 91.4232 177.662 91.5006 176.99C91.6039 175.932 91.7588 174.848 91.8362 173.789C91.862 173.454 91.9911 173.17 92.0428 172.834C92.1977 168.317 92.8172 163.851 93.2045 159.384C93.6691 154.092 94.1338 148.8 94.6501 143.508C95.0374 139.662 95.3471 135.815 95.7085 131.969C95.6827 131.556 95.6569 131.065 96.2507 130.962Z" fill="#6DB5DE"/>
<path d="M123.588 69.7541C120.232 69.1604 116.876 68.5666 113.572 67.7405C113.107 66.7595 113.572 65.8044 113.675 64.8492C113.959 62.1386 114.398 62.4484 111.713 61.6998C110.01 61.2351 108.383 60.5123 107.015 59.3764C105.802 58.3696 104.847 57.1563 104.614 55.5299C104.924 53.3873 105.26 51.2704 105.544 49.1277C105.621 48.6631 105.595 48.1984 106.034 47.8886C106.241 47.4498 106.241 46.9851 106.266 46.4946C105.724 45.3587 106.447 44.2745 106.421 43.1386C106.421 42.6481 106.55 42.1318 106.628 41.6413C106.886 41.2541 107.299 41.1508 107.738 41.0476C109.984 40.4538 112.256 39.9633 114.476 39.2921C115.508 38.9824 116.179 39.2147 116.799 40.0666C119.587 43.7582 122.866 46.9593 126.454 49.8506C126.919 50.212 127.358 50.4959 127.951 50.4701C128.003 50.909 128.287 51.2446 128.571 51.5544C130.584 53.7487 129.836 56.5625 126.919 57.2595C125.602 57.5693 125.163 58.1631 125.008 59.428C124.595 62.9131 124.079 66.3207 123.588 69.7541Z" fill="#FD9993"/>
<path d="M213.245 257.431C217.995 257.431 222.72 257.431 227.47 257.405C227.883 257.405 228.321 257.327 228.657 257.715C230.671 262.749 232.71 267.782 234.724 272.816C235.162 273.927 235.627 275.037 236.066 276.147C235.705 276.482 235.317 276.327 234.956 276.327C226.721 276.327 218.486 276.327 210.225 276.353C209.141 276.353 209.012 276.121 209.244 275.088C210.612 269.228 211.903 263.342 213.245 257.431Z" fill="black"/>
<path d="M164.428 63.9976C164.325 61.7517 164.041 59.5057 164.351 57.2598C164.557 56.8726 164.557 56.4337 164.712 56.0207C165.228 55.2462 165.641 54.3427 166.674 54.0846C169.126 53.8522 171.579 53.749 173.773 55.1688C175.374 56.2014 176.664 57.5954 177.852 59.0669C180.795 62.7068 182.963 66.7856 184.59 71.1742C185.08 72.465 185.209 73.859 185.519 75.2014C185.674 75.9242 185.932 76.5954 186.474 77.1375C186.913 78.196 187.042 79.3577 187.3 80.4677C187.403 80.9582 187.455 81.4745 186.965 81.8617C184.228 82.3006 181.518 82.1457 178.781 81.965C178.187 81.7327 178.033 81.1905 177.904 80.6484C177.645 79.5642 177.413 78.4799 177.181 77.3957C176.948 76.518 176.019 76.9568 175.528 76.518C175.244 76.4147 174.935 76.3373 174.651 76.3631C170.133 76.4405 167.577 73.8332 165.848 70.0384C165.409 69.0574 165.151 67.999 164.686 67.0438C164.583 66.4759 164.273 65.9337 164.66 65.3658C164.893 65.1077 165.461 65.1335 165.409 64.643C165.357 64.0492 164.686 64.3074 164.428 63.9976Z" fill="#FD9993"/>
<path d="M143.957 73.6779C143.776 73.7554 143.57 73.9102 143.415 73.6263C146.41 64.8491 149.378 56.0719 152.373 47.2948C154.283 41.6929 156.194 36.091 158.104 30.4632C158.285 29.9469 158.414 29.4048 158.62 28.7336C156.116 28.7336 153.715 28.7336 151.34 28.7336C148.707 28.7336 147.391 27.417 147.391 24.7581C147.391 22.5638 147.365 20.3695 147.391 18.1752C147.416 15.6969 148.759 14.3545 151.237 14.3287C154.903 14.3029 158.543 14.2771 162.209 14.3545C163.293 14.3804 163.68 14.148 163.654 12.9605C163.577 9.08824 163.654 5.21596 163.603 1.34367C163.603 0.362696 163.912 0.0787297 164.868 0.104545C166.468 0.181991 168.043 0.181991 169.643 0.104545C170.598 0.0529145 170.908 0.362696 170.882 1.34367C170.831 5.26759 170.908 9.16569 170.831 13.0896C170.805 14.148 171.141 14.3545 172.122 14.3545C196.285 14.3287 220.448 14.3287 244.611 14.3545C245.695 14.3545 245.979 14.0706 245.953 12.9863C245.876 9.11405 245.953 5.24177 245.901 1.36949C245.901 0.440141 246.108 0.0529145 247.115 0.104545C248.741 0.181991 250.393 0.181991 252.02 0.104545C252.949 0.0529145 253.181 0.414325 253.156 1.29204C253.104 5.16433 253.181 9.03661 253.104 12.9089C253.078 13.9931 253.285 14.4062 254.498 14.3545C257.492 14.2513 260.513 14.3287 263.533 14.3287C266.373 14.3287 267.586 15.542 267.586 18.4333C267.586 20.5502 267.586 22.6412 267.586 24.7581C267.586 27.5203 266.347 28.7336 263.533 28.7336C261.778 28.7336 259.997 28.8111 258.241 28.7078C257.002 28.6304 257.079 29.0692 257.415 29.9986C259.558 36.1684 261.649 42.3382 263.74 48.5081C274.556 80.1575 285.347 111.807 296.138 143.456C296.319 143.973 296.68 144.489 296.422 145.264C295.725 144.696 295.673 143.973 295.467 143.379C289.684 126.47 283.927 109.587 278.17 92.6779C271.071 71.845 263.946 51.0122 256.873 30.1535C256.486 29.0434 256.021 28.682 254.808 28.682C223.545 28.7336 192.309 28.7336 161.047 28.682C159.679 28.682 159.085 29.0434 158.62 30.3858C154.025 44.0162 149.378 57.6208 144.732 71.2255C144.525 72.0516 144.241 72.8518 143.957 73.6779Z" fill="#F1F2F6"/>
<path d="M89.5644 201.696C89.5644 201.876 89.5644 202.057 89.5644 202.264C88.9706 202.728 88.2478 202.625 87.5766 202.625C83.5753 202.625 79.5998 202.625 75.5984 202.625C73.7913 202.625 73.7397 202.677 73.7397 204.535C73.7397 210.473 73.7397 216.385 73.7397 222.322C73.7397 224.181 73.7913 224.258 75.7275 224.258C83.9367 224.258 92.146 224.258 100.329 224.258C101.052 224.258 101.801 224.103 102.42 224.645C102.42 224.826 102.42 225.033 102.446 225.213C101.852 225.73 101.155 225.601 100.484 225.601C95.631 225.626 90.7777 225.601 85.9245 225.601C84.1174 225.601 84.0658 225.652 84.0658 227.485C84.0658 229.602 84.04 231.693 84.0658 233.81C84.0916 235.204 84.1948 235.333 85.6405 235.359C90.8294 235.385 96.0441 235.359 101.233 235.385C101.904 235.385 102.627 235.256 103.195 235.798C103.221 236.03 103.221 236.262 103.246 236.495C102.833 237.011 102.265 236.959 101.698 236.985C100.742 237.011 99.813 236.985 98.8579 236.985C69.1704 236.985 39.4571 236.985 9.7696 236.985C7.21389 236.985 7.21389 236.985 7.21389 239.515C7.21389 242.742 7.21389 245.969 7.21389 249.196C7.21389 251.39 7.21387 251.39 9.4598 251.39C23.6065 251.39 37.7533 251.39 51.8742 251.39C68.5508 251.39 85.2274 251.39 101.904 251.39C102.704 251.39 103.556 251.183 104.253 251.803C104.253 252.035 104.279 252.268 104.279 252.474C72.2424 252.474 40.2315 252.474 8.19485 252.448C7.11061 252.448 6.72339 252.655 6.7492 253.842C6.82665 258.412 6.82665 262.955 6.7492 267.525C6.72339 268.712 7.11061 268.996 8.19485 268.919C9.17583 268.841 10.1826 268.919 11.1636 268.893C11.8864 268.867 12.1188 269.151 12.1446 269.874C12.222 271.965 12.2478 271.965 10.2084 271.965C7.31714 271.965 4.45165 271.887 1.56035 271.991C0.217957 272.042 0.372855 271.268 0.372855 270.442C0.34704 269.59 0.269582 268.789 1.58616 268.893C2.69621 268.996 3.83208 268.841 4.94214 268.944C6.00056 269.022 6.2329 268.635 6.2329 267.628C6.20708 260.141 6.20709 252.655 6.20709 245.169C6.20709 242.51 6.25872 239.825 6.18128 237.166C6.15546 236.056 6.51688 235.798 7.57531 235.823C12.5576 235.875 17.54 235.798 22.5223 235.875C23.8905 235.901 24.1487 235.462 24.097 234.223C23.9938 231.564 24.0454 228.879 24.097 226.22C24.1229 225.42 23.8389 225.188 23.0644 225.213C20.4055 225.265 17.7207 225.188 15.0617 225.239C14.1324 225.265 13.771 225.059 13.771 224.026C13.7968 216.978 13.7968 209.931 13.771 202.857C13.771 201.98 14.0291 201.67 14.9326 201.67C32.5644 201.696 50.1962 201.696 67.8022 201.67C68.7057 201.67 68.9639 201.902 68.9639 202.832C68.9381 209.931 68.9381 217.03 68.9639 224.129C68.9639 224.955 68.7315 225.239 67.8796 225.239C65.3497 225.188 62.794 225.239 60.2641 225.213C59.4122 225.188 59.0508 225.342 59.0508 226.323C59.1283 229.163 59.1025 232.003 59.0508 234.842C59.0508 235.643 59.2832 235.875 60.0577 235.875C67.3117 235.849 74.5916 235.849 81.8457 235.875C82.6201 235.875 82.8783 235.669 82.8783 234.868C82.8266 232.029 82.8266 229.189 82.8783 226.349C82.9041 225.523 82.6718 225.239 81.7941 225.239C79.1351 225.291 76.4503 225.213 73.7913 225.265C72.862 225.291 72.6296 224.981 72.6554 224.103C72.6812 217.056 72.6812 210.008 72.6554 202.935C72.6554 201.954 72.9652 201.722 73.8946 201.722C79.1609 201.722 84.3497 201.696 89.5644 201.696Z" fill="#5983AF"/>
<path d="M186.268 77.0857C185.183 77.0857 185.416 76.1306 185.338 75.5885C184.306 69.4703 181.414 64.2298 177.697 59.3765C175.993 57.1564 174.109 55.117 171.192 54.4458C169.668 54.0844 168.171 54.3942 166.648 54.3684C166.545 53.6713 167.113 53.4132 167.552 53.1034C168.739 52.3031 170.133 51.9417 171.501 51.6319C173.721 51.1415 175.967 50.7284 178.213 50.4444C179.065 50.3412 179.323 49.954 179.091 49.1537C179.091 48.9472 179.168 48.7406 179.272 48.5599C179.297 45.4621 180.382 42.9064 183.17 41.3575C186.242 39.6279 189.236 41.4349 189.417 44.9458C189.469 46.1333 189.185 47.2434 188.823 48.3534C188.823 48.7406 188.746 49.1021 188.539 49.4377C188.023 50.3412 187.352 51.1156 186.5 51.7094C186.035 52.045 185.88 52.3806 186.268 52.8711C188.178 55.2203 188.901 58.1374 189.933 60.8996C190.579 62.6292 191.095 64.3847 191.74 66.1143C192.412 67.973 192.618 69.8575 191.999 71.7678C191.818 72.1809 191.663 72.5939 191.276 72.8521C190.527 74.4268 189.262 75.4852 187.868 76.4404C187.584 76.905 187.094 76.9825 186.629 77.1116C186.5 77.1632 186.371 77.1374 186.268 77.0857Z" fill="black"/>
<path d="M8.03969 178.488C8.53018 178.901 9.12394 178.694 9.64025 178.694C36.5655 178.694 63.4908 178.694 90.416 178.746C90.7775 178.746 91.5778 178.178 91.6036 179.211C64.3427 179.211 37.0818 179.211 9.82094 179.211C9.35627 179.211 8.86578 179.237 8.40111 179.185C6.82638 178.978 5.92285 177.843 5.92285 176.113C5.92285 174.383 6.85219 173.118 8.42692 173.093C9.5886 173.067 9.61441 172.55 9.61441 171.698C9.58859 156.39 9.61441 141.082 9.61441 125.747C9.61441 100.707 9.61441 75.6659 9.61441 50.6509C9.61441 49.7474 9.69188 49.0762 8.34949 49.0762C6.80058 49.0504 5.92285 47.7338 5.94866 45.9784C5.97448 44.352 6.90382 43.2162 8.40111 43.0096C8.81415 42.958 9.25301 42.9838 9.69187 42.9838C20.5601 42.9838 31.4541 42.958 42.3223 42.958C42.2706 43.3969 42.5288 43.8874 42.1416 44.2746C41.3671 43.9648 40.5668 43.8874 39.7408 43.8874C30.0342 43.8874 20.3277 43.8874 10.647 43.8874C9.87256 43.8874 9.09813 43.8874 8.34949 44.1455C7.42014 44.4811 6.95545 45.1265 6.98127 46.0816C7.00708 47.0884 7.49758 47.7855 8.50437 48.0694C9.09812 48.2243 9.69188 48.2243 10.2856 48.2243C20.1987 48.2243 30.1117 48.2243 40.0247 48.2243C40.5411 48.2243 41.0573 48.1211 41.5478 48.3792C41.4962 48.8181 41.7028 49.2827 41.3414 49.67C31.6606 49.4376 22.0057 49.6183 12.325 49.5925C10.9568 49.5925 10.8277 49.7474 10.7761 51.1931C10.7761 51.5803 10.7761 51.9675 10.7761 52.3547C10.7761 91.5939 10.7761 130.807 10.7761 170.046C10.7761 172.654 10.7761 172.654 13.3835 172.654C38.8889 172.654 64.3685 172.654 89.874 172.654C90.7259 172.654 91.6036 172.447 92.378 173.015C92.3006 173.222 92.2231 173.454 92.1457 173.66C91.397 174.151 90.5709 173.996 89.7707 173.996C63.5682 173.996 37.34 173.996 11.1375 173.996C10.4405 173.996 9.76931 173.97 9.0723 174.048C7.16197 174.306 6.41334 175.932 7.47176 177.533C7.65247 177.843 7.98806 178.075 8.03969 178.488Z" fill="#5D85B1"/>
<path d="M229.096 236.417C229.018 236.211 228.967 236.004 228.889 235.798C231.6 235.798 234.31 235.772 237.021 235.798C237.847 235.798 238.157 235.617 238.131 234.739C238.079 231.899 238.079 229.06 238.131 226.22C238.157 225.317 237.796 225.162 236.995 225.162C234.336 225.213 231.651 225.162 228.993 225.188C228.141 225.213 227.779 225.033 227.805 224.077C227.831 216.978 227.831 209.879 227.805 202.78C227.805 201.954 227.986 201.644 228.889 201.644C246.599 201.67 264.308 201.67 282.017 201.644C282.843 201.644 283.024 201.928 283.024 202.702C282.998 209.853 282.998 216.978 283.024 224.129C283.024 225.033 282.688 225.213 281.888 225.188C279.358 225.136 276.802 225.213 274.272 225.162C273.343 225.136 273.111 225.471 273.137 226.349C273.188 229.137 273.188 231.951 273.137 234.739C273.111 235.591 273.421 235.823 274.247 235.823C279.358 235.798 284.469 235.849 289.607 235.772C290.743 235.746 291.052 236.082 291.052 237.217C291.001 247.285 291.052 257.353 291.001 267.421C291.001 268.635 291.362 268.996 292.498 268.893C293.427 268.789 294.382 268.919 295.338 268.867C296.086 268.841 296.396 269.073 296.422 269.899C296.473 271.939 296.499 271.939 294.434 271.939C291.543 271.939 288.677 271.887 285.786 271.965C284.547 271.991 284.624 271.293 284.65 270.493C284.676 269.719 284.366 268.789 285.76 268.867C287.051 268.944 288.342 268.867 289.632 268.893C290.252 268.893 290.459 268.686 290.459 268.067C290.433 263.162 290.433 258.257 290.459 253.352C290.459 252.681 290.226 252.397 289.555 252.474C289.478 252.474 289.374 252.474 289.297 252.474C270.555 252.474 251.813 252.474 233.071 252.474C233.046 252.242 232.994 252.035 232.968 251.803C233.613 251.183 234.414 251.364 235.162 251.364C252.433 251.364 269.729 251.364 286.999 251.364C290.433 251.364 290.071 251.648 290.071 248.344C290.097 245.169 290.071 241.967 290.071 238.792C290.071 237.088 289.968 236.985 288.238 236.985C279.435 236.985 270.607 236.985 261.804 236.985C251.607 236.985 241.435 236.985 231.238 236.985C230.516 236.933 229.69 237.166 229.096 236.417Z" fill="#5983AF"/>
<path d="M127.951 50.4958C127.771 51.1154 127.512 51.0896 127.022 50.7024C123.434 47.9401 120.078 44.9198 117.393 41.2798C116.18 39.6276 115.069 39.2404 113.185 39.9374C111.068 40.6861 108.822 41.0991 106.628 41.667C106.964 39.4727 107.299 37.2526 107.609 35.0583C107.635 34.8002 107.686 34.542 107.893 34.3613C113.082 35.4456 118.322 36.4265 123.485 37.6399C126.635 38.3885 128.674 41.4089 128.493 44.7132C128.416 46.6752 128.132 48.5855 127.951 50.4958Z" fill="black"/>
<path d="M186.553 77.0079C186.94 76.724 187.379 76.5433 187.843 76.4658C207.928 76.4658 227.986 76.4658 248.07 76.4916C249.8 76.4916 249.8 76.4916 249.8 78.1954C249.8 109.458 249.8 140.72 249.826 171.982C249.826 173.247 249.568 173.634 248.225 173.634C236.712 173.583 225.198 173.583 213.659 173.583C213.452 173.454 213.375 173.273 213.375 173.041C214.02 172.447 214.82 172.628 215.595 172.602C225.921 172.576 236.221 172.602 246.547 172.602C248.819 172.602 248.819 172.602 248.819 170.33C248.819 151.588 248.819 132.82 248.819 114.079C248.819 113.898 248.819 113.743 248.819 113.562C248.793 111.833 248.742 111.755 246.986 111.755C236.144 111.755 225.327 111.755 214.485 111.755C213.581 111.755 212.678 111.755 211.774 111.755C211.258 111.755 210.742 111.755 210.303 111.368C210.303 111.161 210.303 110.955 210.303 110.748C211 110.258 211.8 110.387 212.549 110.387C223.882 110.387 235.214 110.387 246.573 110.387C248.819 110.387 248.819 110.387 248.819 108.089C248.819 98.512 248.819 88.9346 248.819 79.3313C248.819 77.4468 248.793 77.3952 246.857 77.3952C234.492 77.3952 222.126 77.3952 209.761 77.3952C209.012 77.3952 208.212 77.5501 207.515 77.0596C206.947 77.3694 207.231 77.9115 207.205 78.3245C207.179 80.209 207.179 82.0677 206.921 83.9522C206.921 82.0677 206.947 80.209 206.895 78.3245C206.895 77.8857 207.153 77.3694 206.585 77.0596C206.069 77.4726 205.449 77.3952 204.856 77.3952C199.357 77.3952 193.858 77.3952 188.36 77.3952C187.766 77.421 187.095 77.5242 186.553 77.0079Z" fill="#5882AE"/>
<path d="M188.41 49.1275C188.539 48.8693 188.694 48.6112 188.823 48.353C189.339 48.7144 189.907 48.5595 190.45 48.5595C209.708 48.5595 228.94 48.5854 248.198 48.5337C249.437 48.5337 249.876 48.7403 249.85 50.1343C249.773 57.1818 249.773 64.2294 249.85 71.2769C249.85 72.5419 249.592 72.9291 248.25 72.9291C229.25 72.8775 210.276 72.9033 191.276 72.9033C191.405 72.5677 191.56 72.2321 191.689 71.8965C210.121 72.0514 228.553 71.9223 246.985 71.9481C248.792 71.9481 248.844 71.8707 248.844 70.0378C248.844 63.9454 248.844 57.8272 248.844 51.7348C248.844 49.5922 248.818 49.5663 246.701 49.5663C228.062 49.5663 209.398 49.5663 190.759 49.5663C189.959 49.5405 189.107 49.747 188.41 49.1275Z" fill="#5983AF"/>
<path d="M263.714 69.9604C271.02 92.6004 278.325 115.266 284.573 138.216C277.757 115.421 270.452 92.7811 263.714 69.9604Z" fill="#F1F2F6"/>
<path d="M164.868 66.9401C165.384 67.1208 165.358 67.5855 165.487 67.9727C166.004 69.6507 166.701 71.2771 167.785 72.6711C169.489 74.8654 171.709 76.0529 174.523 76.0529C174.962 76.0529 175.478 75.8722 175.813 76.3627C175.917 76.595 175.943 76.8273 175.762 77.0597C175.659 77.1371 175.529 77.1371 175.426 77.0855C174.058 77.0339 172.664 77.0339 171.347 76.5692C171.115 76.6724 170.857 76.595 170.625 76.5434C169.773 76.1819 168.921 75.8464 168.482 74.9428C166.313 73.0067 165.203 70.4768 164.3 67.8178C164.326 67.6371 164.351 67.4564 164.377 67.2499C164.506 67.0692 164.584 66.811 164.868 66.9401Z" fill="#040202"/>
<path d="M128.081 94.7433C128.081 90.742 128.055 86.7406 128.055 82.7393C129.578 83.7202 130.042 85.011 129.629 86.8181C129.01 89.4512 128.571 92.1102 128.081 94.7433Z" fill="#6AAFD6"/>
<path d="M179.298 48.56C179.324 48.7407 179.324 48.9214 179.35 49.1021C178.782 49.6442 178.059 49.5152 177.388 49.5152C173.929 49.541 170.469 49.5152 166.984 49.5152C165.41 49.5152 165.332 49.6442 165.28 51.1931C165.229 52.7937 165.539 54.4459 164.919 56.0206C164.79 56.4594 164.661 56.8725 164.351 57.2339C164.325 54.6524 164.351 52.0709 164.274 49.5152C164.248 48.6633 164.635 48.5342 165.358 48.5342C170.03 48.56 174.651 48.56 179.298 48.56Z" fill="#5F87B2"/>
<path d="M128.055 72.4131C128.417 74.5041 128.081 76.5952 128.159 78.6862C128.184 79.6672 128.184 80.6481 128.21 81.6291C126.248 81.4226 126.274 81.4226 126.635 79.5639C127.126 77.1631 127.591 74.7881 128.055 72.4131Z" fill="#080C0E"/>
<path d="M159.962 66.5013C161.201 68.8246 162.441 71.1738 163.68 73.523C163.86 73.8844 164.428 74.3233 163.757 74.7105C163.189 75.0203 163.034 74.4007 162.854 74.0651C161.537 71.6127 160.246 69.1602 158.93 66.7336C159.188 66.1915 159.549 66.2173 159.962 66.5013Z" fill="#070404"/>
<path d="M156.141 67.4567C157.355 69.7285 158.542 72.0002 159.73 74.2719C159.936 74.6592 160.452 75.1755 159.885 75.5111C159.213 75.8983 159.084 75.098 158.852 74.7108C157.561 72.3874 156.296 70.0382 155.031 67.7149C155.238 66.7855 155.677 67.0953 156.141 67.4567Z" fill="#060404"/>
<path d="M22.1345 18.1494C22.2894 18.2527 22.4444 18.3559 22.5476 18.4592C23.89 19.7758 25.2066 21.1182 26.5231 22.4347C26.7038 22.6154 26.962 22.7962 26.7297 23.0801C26.4715 23.3641 26.265 23.0801 26.1101 22.9252C24.7419 21.5828 23.3995 20.2146 22.0313 18.8464C21.9281 18.7432 21.8506 18.5625 21.8506 18.4076C21.8506 18.3301 22.0313 18.2269 22.1345 18.1494Z" fill="#F1F2F6"/>
<path d="M151.986 69.8315C151.986 70.2962 151.986 70.7867 152.012 71.2514C151.934 73.3682 150.979 75.2011 150.308 77.1373C150.256 77.2663 150.101 77.2663 149.972 77.2921C149.714 77.1889 149.688 76.9565 149.637 76.7242C150.282 74.6332 150.902 72.5163 151.573 70.4253C151.624 70.193 151.702 69.9348 151.986 69.8315Z" fill="#638AB4"/>
<path d="M283.901 45.5908C284.805 47.656 285.682 49.7213 286.586 51.7865C286.431 51.8639 286.276 51.9155 286.096 51.993C285.089 49.9536 284.159 47.9142 283.437 45.7715C283.591 45.7199 283.746 45.6425 283.901 45.5908Z" fill="#F1F2F6"/>
<path d="M272.981 179.314C272.878 178.23 273.446 177.275 273.704 176.268C273.962 175.235 274.298 174.228 274.608 173.196C274.659 173.015 274.762 172.757 275.046 172.834C275.253 172.886 275.279 173.067 275.227 173.247C274.608 175.287 273.988 177.352 273.343 179.391C273.239 179.391 273.11 179.366 272.981 179.314Z" fill="#F1F2F6"/>
<path d="M76.8887 15.7488C77.5341 13.6319 78.1794 11.5151 78.9023 9.11426C79.2895 10.3018 77.9213 14.9743 76.8887 15.7488Z" fill="#F1F2F6"/>
<path d="M164.428 63.9975C164.918 63.8684 165.409 63.6102 165.822 64.1524C166.003 64.4105 166.029 64.7203 165.874 65.0043C165.641 65.4689 165.228 65.4948 164.789 65.3657C164.583 65.2882 164.505 65.0817 164.351 64.9268C164.402 64.5912 164.428 64.2814 164.428 63.9975Z" fill="#060505"/>
<path d="M164.377 64.875C164.532 65.0299 164.661 65.1848 164.816 65.3139C164.48 65.856 164.816 66.3981 164.867 66.9144C164.713 67.0177 164.532 67.0951 164.377 67.1984C164.377 66.4497 164.377 65.6495 164.377 64.875Z" fill="#547297"/>
<path d="M169.617 257.147C161.898 257.353 154.154 257.018 146.435 257.353C146.745 255.701 145.945 254.204 145.686 252.655C145.609 252.345 145.48 252.035 145.428 251.726C144.086 246.743 142.847 241.709 141.582 236.701C141.479 236.107 141.349 235.514 141.143 234.946C140.265 231.719 139.491 228.492 138.613 225.265C138.561 225.058 138.51 224.878 138.484 224.671C138.148 223.355 137.813 222.038 137.503 220.747C137.374 220.257 137.167 219.766 137.529 219.276C144.886 219.276 152.218 219.276 159.575 219.302C159.859 219.302 160.169 219.431 160.453 219.482C161.176 220.154 161.098 221.135 161.356 221.961C161.614 222.813 161.795 223.716 162.027 224.568C162.079 224.775 162.131 224.981 162.157 225.188C163.008 228.673 163.938 232.106 164.712 235.591C164.738 235.927 164.867 236.262 164.945 236.598C166.184 241.632 167.449 246.666 168.714 251.674C168.791 251.932 168.843 252.216 168.894 252.5C169.204 253.584 169.488 254.694 169.695 255.83C169.772 256.243 169.927 256.708 169.617 257.147Z" fill="#8F3600"/>
<path d="M149.973 77.2922C150.644 75.2786 151.341 73.2651 152.012 71.2515C154.8 75.6142 156.633 80.4417 158.93 85.0368C159.343 85.8371 159.602 86.7406 160.118 87.4634C161.151 88.8574 160.97 90.3031 160.686 91.852C159.008 100.991 157.201 110.103 155.265 119.19C154.877 120.997 154.955 122.779 155.833 124.457C156.065 124.921 156.117 125.205 155.549 125.438C154.335 125.928 153.535 126.857 153.045 128.045C152.941 128.406 153.096 128.768 153.019 129.129C153.019 129.826 152.993 130.523 152.993 131.22C152.967 131.582 152.993 131.943 152.993 132.304C153.329 135.196 154.671 136.409 157.511 136.719C159.782 136.951 162.028 136.796 164.3 136.925C164.713 137.261 164.713 137.751 164.739 138.216C164.816 143.405 164.687 148.594 164.481 153.783C164.481 153.86 164.403 153.938 164.377 154.015C163.732 161.527 163.138 169.065 162.467 176.578C162.364 177.688 162.519 178.823 162.08 179.882C160.686 176.139 159.705 172.266 158.543 168.472C154.748 155.9 151.057 143.302 147.288 130.73C147.081 130.033 147.159 129.516 147.494 128.923C149.689 124.921 151.108 120.61 151.418 116.092C151.96 108.038 152.993 100.035 154.387 92.0843C155.368 86.5599 154.103 81.8099 150.231 77.7311C150.127 77.602 150.05 77.4471 149.973 77.2922Z" fill="white"/>
<path d="M99.3487 90.7678C100.665 92.549 102.008 94.3303 103.324 96.1373C103.815 96.8085 104.357 97.4023 105.08 97.7895C103.376 101.713 101.388 105.457 99.4778 109.277C98.884 109.277 98.3677 108.916 97.7998 108.787C97.5674 108.477 97.2576 108.27 97.1802 107.857C95.9927 106.67 94.4954 105.895 93.153 104.94C89.0742 102.101 84.9696 99.3126 80.8908 96.4471C78.0253 94.4335 77.4315 92.8072 78.2834 89.3996C78.8772 89.064 79.2386 89.5545 79.6517 89.8126C81.278 90.8452 82.8011 92.0585 84.4533 93.0911C84.8147 93.3235 85.1245 93.6074 85.615 93.5816C83.8079 92.2392 81.975 90.9485 80.1421 89.6835C79.6775 89.3479 79.0063 89.193 78.9804 88.4444C79.4193 87.8765 79.6775 87.2053 80.297 86.7664C80.865 86.6631 81.2522 87.0504 81.691 87.3085C83.24 88.2895 84.6856 89.4512 86.2345 90.4064C86.596 90.6387 86.88 90.9485 87.4221 90.8968C85.7699 89.6577 84.0919 88.4702 82.3881 87.3085C81.8718 86.9471 81.2264 86.7406 80.994 86.0436C81.3555 85.1401 82.259 84.9077 82.9818 84.9335C85.5375 85.0368 87.7576 86.0694 89.8228 87.5667C90.5457 87.6441 91.0362 88.1604 91.6041 88.5477C93.3854 89.8126 95.1925 90.9743 97.1028 92.0585C96.0444 91.0259 94.7794 90.3031 93.5919 89.4512C93.0498 89.064 92.327 88.8574 92.1204 88.1088C93.9533 87.7216 95.5796 88.4186 97.1286 89.2189C97.8772 89.5803 98.5742 90.2256 99.3487 90.7678Z" fill="#FD9993"/>
<path d="M128.21 135.376C123.744 134.628 119.252 133.879 114.786 133.156C108.616 132.149 102.446 131.142 96.302 130.136C95.8373 129.748 95.8632 129.206 95.9148 128.716C96.2504 125.128 96.4827 121.539 96.7925 117.977C96.9216 116.454 96.8442 114.879 97.283 113.382C97.4379 113.02 97.5412 112.607 98.0575 112.633C104.434 117.047 110.81 121.488 117.187 125.902C120.439 128.148 123.64 130.471 126.919 132.64C127.977 133.363 128.519 134.111 128.21 135.376Z" fill="black"/>
<path d="M138.898 225.162C139.904 228.44 140.679 231.796 141.479 235.127C141.634 236.159 140.86 236.108 140.24 236.133C138.562 236.185 136.884 236.159 135.232 236.159C132.392 236.159 129.578 236.159 126.739 236.159C126.196 236.159 125.603 236.211 125.138 235.824C124.673 232.313 124.286 228.776 124.105 225.214C125.293 224.517 126.532 224.878 127.771 224.955C128.055 224.517 127.926 224.026 127.926 223.587C127.926 219.508 127.926 215.43 127.926 211.351C127.926 210.86 127.771 210.292 128.597 210.267C129.423 210.241 129.475 210.757 129.475 211.351C129.501 213.597 129.527 215.817 129.553 218.063C129.553 218.708 129.578 219.276 130.482 219.25C131.23 219.224 131.076 219.818 131.101 220.257C131.205 221.832 130.895 223.432 131.282 224.981C133.528 224.697 135.8 224.878 138.046 224.878C138.381 224.852 138.639 225.007 138.898 225.162Z" fill="white"/>
<path d="M124.002 224.645C123.486 219.844 122.892 215.068 122.608 210.24C124.157 210.344 125.732 209.956 127.281 210.447C127.565 210.86 127.488 211.35 127.488 211.815C127.488 215.61 127.488 219.431 127.488 223.225C127.488 224.878 127.462 224.929 125.732 224.903C125.138 224.903 124.519 225.058 124.002 224.645Z" fill="#9AE7E5"/>
<path d="M161.77 224.671C161.176 222.993 160.84 221.212 160.453 219.482C162.079 219.095 163.732 219.328 165.358 219.353C165.874 219.353 166.365 219.379 166.881 219.405C167.785 221.135 168.817 222.813 169.54 224.62C169.514 224.645 169.488 224.697 169.463 224.697C166.855 225.188 164.325 225.265 161.77 224.671Z" fill="#9AE7E5"/>
<path d="M137.529 219.25C137.967 221.031 138.38 222.812 138.819 224.62C138.277 225.11 137.58 224.904 136.961 224.904C135.541 224.929 134.121 224.929 132.701 224.904C132.211 224.904 131.668 224.826 131.668 224.207C131.694 222.554 131.333 220.876 131.875 219.25C133.76 219.25 135.644 219.25 137.529 219.25Z" fill="#9AE7E5"/>
<path d="M124.002 224.646C127.255 224.671 127.255 224.671 127.255 221.393C127.255 217.753 127.28 214.113 127.28 210.447C128.184 210.292 127.719 211.015 127.719 211.273C127.745 215.326 127.745 219.354 127.745 223.407C127.745 223.923 127.771 224.439 127.797 224.955C126.609 225.498 125.344 225.059 124.131 225.214C124.079 225.007 124.028 224.826 124.002 224.646Z" fill="#5882AE"/>
<path d="M131.876 219.25C131.876 220.747 131.901 222.219 131.85 223.716C131.824 224.439 132.082 224.671 132.805 224.645C134.793 224.594 136.806 224.62 138.794 224.62C138.82 224.8 138.871 224.981 138.897 225.162C136.626 225.162 134.38 225.188 132.108 225.188C131.824 225.188 131.488 225.265 131.308 224.929C131.333 223.406 131.333 221.857 131.359 220.334C131.385 219.921 131.127 219.353 131.876 219.25Z" fill="#638AB3"/>
<path d="M98.0572 112.633C97.9023 112.814 97.7474 112.969 97.6184 113.149C96.9472 111.626 97.2828 110.155 97.8765 108.709C98.6768 108.193 98.9349 109.122 99.4512 109.303C99.1414 110.464 98.1863 111.394 98.0572 112.633Z" fill="#050505"/>
<path d="M97.8767 108.709C97.7992 110.181 97.6959 111.678 97.6185 113.15C97.1796 118.803 96.7408 124.483 96.3019 130.136C96.2761 130.42 96.2503 130.678 96.2244 130.962C95.9663 133.337 95.7082 135.738 95.4758 138.113C94.8821 144.231 94.3141 150.324 93.772 156.442C93.2815 161.966 92.8168 167.465 92.3522 172.989C91.8875 173.015 91.397 173.041 90.9323 173.041C64.575 173.041 38.2177 173.041 11.8861 173.067C10.6212 173.067 10.2598 172.809 10.2598 171.466C10.3114 131.22 10.3114 90.9486 10.2598 50.7027C10.2598 49.3603 10.6212 49.1021 11.8861 49.1021C21.2571 49.1538 30.628 49.128 39.9989 49.1538C40.4636 49.1538 41.1864 48.7665 41.3413 49.6701C40.3862 56.2271 39.431 62.7584 38.45 69.3155C38.1402 69.6252 37.753 69.6252 37.3657 69.6252C35.791 69.5994 34.7842 70.4255 34.1388 71.7679C33.2095 73.6266 32.4609 75.5369 31.9962 77.5505C31.4283 80.003 32.3318 81.6035 34.7068 82.507C35.3005 82.7394 35.9975 82.7136 36.4364 83.2815C35.6619 88.5478 34.8875 93.7883 34.0872 99.0546C34.0356 99.3902 33.9323 99.7258 33.8291 100.036C32.8481 102.617 31.4283 104.966 30.2149 107.419C27.7109 112.504 25.6715 117.719 24.9744 123.373C24.4581 127.555 24.4323 131.762 24.7937 135.97C25.0003 138.268 25.3359 140.565 25.6198 142.863C26.2136 147.794 31.1443 149.084 34.397 147.613C37.753 146.116 40.6443 144.102 42.9419 141.185C44.7489 138.887 47.2272 137.209 49.215 135.093C49.6538 134.628 50.1443 134.189 50.5574 133.699C51.9772 132.098 52.6226 130.291 52.5709 128.071C52.4419 121.798 52.5193 115.525 52.5193 109.252C52.5193 108.658 52.3902 108.038 52.8033 107.522C53.4486 107.419 53.5777 107.987 53.7843 108.348C55.5913 111.472 57.2693 114.647 59.0248 117.796C59.4894 118.597 59.6701 119.449 59.6443 120.378C59.6185 123.089 59.6443 125.773 59.6443 128.484C59.6443 129.052 59.5927 129.594 59.7734 130.136C59.9283 131.608 60.8576 132.64 61.787 133.647C64.4201 136.538 67.5437 138.965 70.022 141.985C72.2421 144.696 75.1592 146.219 78.1796 147.665C81.484 149.265 86.0274 147.277 86.5954 143.354C87.0342 140.333 87.3698 137.313 87.628 134.292C87.9377 130.756 87.7055 127.271 87.344 123.76C87.3182 123.553 87.344 123.321 87.3957 123.114C87.4731 122.676 87.757 122.34 88.0152 122.004C90.0288 119.526 91.5519 116.738 93.1008 113.976C93.4106 113.434 93.7204 112.943 94.3141 112.711C95.6049 112.375 96.3019 111.549 96.4826 110.233C96.6117 109.458 96.5858 108.606 97.0505 107.909C97.6443 107.935 97.825 108.271 97.8767 108.709Z" fill="#9AE7E5"/>
<path d="M33.7771 101.326C33.9061 103.314 34.6548 104.088 36.5651 104.372C41.4442 105.069 46.3233 105.792 51.2023 106.489C51.4863 106.541 51.7703 106.644 52.08 106.722C52.6222 107.212 52.648 107.857 52.648 108.503C52.648 115.473 52.648 122.417 52.648 129.387C52.648 131.453 51.3314 132.872 50.0664 134.266C48.9564 135.506 47.7172 136.641 46.4523 137.751C44.9292 139.094 43.4319 140.462 42.2186 142.063C39.9727 144.98 36.8749 146.632 33.5705 147.871C29.9564 149.265 26.239 146.864 25.5936 142.889C24.845 138.216 24.4319 133.544 24.5352 128.794C24.6643 122.624 26.0067 116.738 28.4591 111.084C29.6466 108.322 31.0406 105.663 32.4088 102.978C32.7186 102.385 32.8735 101.533 33.7771 101.326Z" fill="#FF9997"/>
<path d="M59.5925 130.213C59.3086 129.774 59.4118 129.31 59.386 128.845C59.386 126.831 59.2569 124.792 59.4118 122.778C59.6184 120.197 59.0246 117.925 57.6048 115.731C55.901 113.072 54.636 110.129 52.8806 107.47C52.3643 107.289 52.4933 107.031 52.8806 106.876C53.1387 106.773 53.4485 106.799 53.7066 106.928C58.8439 107.676 63.9553 108.399 69.0925 109.148C76.4757 110.232 83.833 111.316 91.2162 112.375C92.2746 112.53 93.333 112.762 94.4172 112.685C93.5137 113.795 92.9199 115.06 92.2229 116.299C90.9064 118.674 89.3833 120.894 87.7053 122.985C87.4988 123.321 87.4987 123.734 87.2406 124.043C85.6917 125.721 83.9879 127.244 82.1292 128.561C75.7012 133.13 66.3819 131.246 62.1741 124.585C61.5287 123.579 60.9091 122.572 60.4961 121.41C60.5219 123.837 60.5219 126.238 60.4961 128.638C60.4961 129.103 60.7284 129.774 59.8765 129.852C59.6699 126.651 59.8507 123.45 59.7732 120.558C59.7732 123.037 59.7732 125.85 59.7732 128.664C59.7474 129.206 59.9281 129.748 59.5925 130.213Z" fill="#6DB5DE"/>
<path d="M41.5735 48.3536C41.1863 48.6118 40.7475 48.5343 40.3086 48.5343C29.9825 48.5343 19.6822 48.5343 9.35613 48.5343C7.60069 48.5343 6.74879 47.9148 6.51645 46.5466C6.23249 44.8428 7.13602 43.6811 8.83982 43.5262C9.17542 43.5004 9.53683 43.5262 9.87243 43.5262C20.1985 43.5262 30.4988 43.5262 40.8249 43.5262C41.367 43.5262 42.1156 43.2422 42.1415 44.249C41.9607 45.6172 41.7542 46.9854 41.5735 48.3536Z" fill="#505571"/>
<path d="M36.4624 83.2554C35.9719 83.1521 35.4556 83.0489 34.9651 82.9198C32.1771 82.1195 31.067 80.1318 31.7382 77.2921C32.1255 75.6657 32.745 74.091 33.3904 72.5679C34.6037 69.6766 35.3782 69.2119 38.476 69.3152C40.9026 70.2962 42.9162 71.716 43.7423 74.3491C43.9746 75.072 44.0521 75.769 43.639 76.4402C43.0969 76.7758 42.658 76.4144 42.1934 76.2595C40.8252 75.7948 39.4828 75.2269 38.063 74.9171C38.76 75.4076 39.5602 75.6399 40.3347 75.9497C41.3157 76.3369 42.3999 76.466 43.2002 77.2921C43.1228 78.2731 43.0711 79.254 42.1934 79.9252C40.9284 80.1059 39.9216 79.2798 38.7858 79.0217C38.1662 78.8668 37.6241 78.4796 36.9271 78.557C37.8048 78.9959 38.7342 79.3315 39.6377 79.6929C40.4896 80.0543 41.4706 80.1576 42.1417 80.9062C41.7029 82.5326 40.7219 83.3587 38.9148 83.4361C38.0629 83.4619 37.2627 83.307 36.4624 83.2554Z" fill="#FD9993"/>
<path d="M104.614 55.5557C106.266 59.4796 109.596 61.0285 113.443 61.8029C114.321 61.9837 114.424 62.4225 114.295 63.1712C114.037 64.6943 113.83 66.2173 113.598 67.7404C113.34 67.7663 113.185 67.8179 113.107 68.1793C112.1 73.4456 111.094 78.6861 110.035 83.9524C109.88 84.701 110.087 84.9592 110.81 85.1657C112.359 85.6562 113.107 86.947 112.901 88.5733C112.823 89.2962 112.694 90.019 112.513 90.716C112.1 92.4456 110.603 93.375 108.822 93.091C108.228 92.9877 107.634 92.8845 107.041 92.7812C105.079 92.3682 104.124 90.8709 104.485 88.8831C104.588 88.341 104.691 87.7989 104.795 87.2309C105.182 85.4497 106.421 84.4945 108.202 84.6494C108.77 84.701 108.925 84.5978 109.028 84.0557C110.035 78.7635 111.094 73.4456 112.126 68.1535C112.204 67.7146 112.152 67.5339 111.687 67.4565C109.829 67.1467 107.996 66.7595 106.111 66.4755C105.079 66.3206 104.072 66.6046 103.194 67.2241C102.652 66.2173 103.22 65.2364 103.349 64.2812C103.685 61.3641 104.175 58.447 104.614 55.5557Z" fill="#FEFEFE"/>
<path d="M53.7333 106.928C53.4752 107.135 52.7265 106.593 52.9072 107.47C52.9072 114.828 52.933 122.185 52.933 129.517C52.933 130.678 52.4941 131.685 51.8229 132.614C50.7903 134.034 49.5254 135.299 48.2347 136.487C45.8855 138.681 43.5362 140.901 41.4194 143.354C39.2509 145.909 36.308 147.277 33.236 148.284C29.8026 149.42 26.111 147.226 25.4656 143.689C23.9425 135.351 23.452 126.961 25.5689 118.623C27.2469 111.962 30.2673 105.844 33.8298 100.01C33.8039 100.449 33.7781 100.887 33.7523 101.352C29.2863 108.993 25.6463 116.945 24.9751 125.954C24.5363 131.608 25.0009 137.184 25.8528 142.76C26.524 147.174 30.4738 149.084 34.5268 147.226C37.6246 145.806 40.2578 143.947 42.5037 141.314C44.7496 138.733 47.3569 136.461 49.8093 134.06C51.5906 132.33 52.4425 130.317 52.3651 127.735C52.2102 121.901 52.3135 116.041 52.3135 110.207C52.3135 109.045 52.3134 107.883 52.0295 106.748C52.649 106.722 53.217 106.567 53.7333 106.928Z" fill="#5983AF"/>
<path d="M77.9472 31.8575C73.8684 31.2638 69.8154 30.67 65.7366 30.0504C61.2706 29.4051 56.8303 28.7597 52.3901 28.0627C51.9254 27.9852 51.0219 28.2434 51.1768 27.3657C51.3059 26.6428 52.0287 27.0559 52.4934 27.1333C60.935 28.3466 69.3765 29.5858 77.8181 30.8249C78.257 30.9024 78.9024 30.8507 78.9024 31.4703C78.8508 31.9866 78.3086 31.8575 77.9472 31.8575Z" fill="#FCFCFC"/>
<path d="M50.5053 32.7093C54.8939 33.3805 59.0759 34.0001 63.258 34.6196C63.6194 34.6713 64.1357 34.6454 64.0583 35.2134C63.9808 35.7297 63.542 35.6522 63.1547 35.6006C59.1017 35.0068 55.0229 34.3873 50.9699 33.7935C50.8408 33.7677 50.7117 33.7419 50.5827 33.7161C50.1954 33.6386 49.7308 33.6128 49.8599 33.0707C49.9373 32.6318 50.3504 32.6835 50.5053 32.7093Z" fill="#FAFAFB"/>
<path d="M78.9281 88.3926C80.9934 90.0706 83.2909 91.3871 85.4336 92.9619C85.7692 93.22 86.4662 93.4007 86.0789 93.9945C85.6659 94.5882 85.2529 93.9945 84.8915 93.788C82.6456 92.3681 80.6062 90.6643 78.257 89.4252C78.1537 88.8573 78.2311 88.4184 78.9281 88.3926Z" fill="#060404"/>
<path d="M80.9421 85.992C83.0589 87.4118 85.1758 88.8575 87.2927 90.3031C87.6541 90.5355 88.3253 90.7936 87.9122 91.3357C87.525 91.852 87.0603 91.3357 86.6989 91.1034C84.5304 89.6577 82.3878 88.1863 80.2451 86.7148C80.116 86.4567 79.8578 86.1985 80.1418 85.9145C80.4258 85.6306 80.6839 85.9145 80.9421 85.992Z" fill="#060303"/>
<path d="M92.0681 88.0569C93.7719 89.1928 95.4757 90.3545 97.1795 91.5162C97.4634 91.7227 97.954 91.9292 97.6184 92.3939C97.3602 92.7811 97.0246 92.5746 96.7148 92.3681C94.3915 90.7417 91.9648 89.2961 89.7705 87.5148C89.8221 86.9211 90.0287 86.6113 90.6483 87.0243C91.1129 87.3599 91.5776 87.7213 92.0681 88.0569Z" fill="#060404"/>
<path d="M43.2006 77.2922C41.471 76.6726 39.7414 76.053 38.0117 75.4335C37.6503 75.3044 37.2115 75.1495 37.4438 74.6332C37.6245 74.2201 38.0376 74.375 38.3473 74.5041C40.1028 75.1495 41.884 75.7949 43.6395 76.4402C43.8976 76.9307 43.7686 77.2405 43.2006 77.2922Z" fill="#060404"/>
<path d="M42.1161 80.9062C40.3349 80.2609 38.5536 79.6413 36.7982 78.9959C36.4626 78.8668 35.9463 78.7894 36.1528 78.2473C36.3335 77.7052 36.7982 77.9633 37.1338 78.0666C38.8376 78.6861 40.5155 79.3057 42.1935 79.9511C42.6066 80.2867 42.6582 80.6223 42.1161 80.9062Z" fill="#060404"/>
<path d="M106.267 46.5205C106.886 47.0884 106.886 47.5531 106.034 47.9145C105.725 47.3724 105.57 46.8819 106.267 46.5205Z" fill="#0B080A"/>
<path d="M210.328 111.394C222.977 111.394 235.601 111.394 248.25 111.342C249.309 111.342 249.283 111.859 249.283 112.607C249.283 126.677 249.283 140.746 249.283 154.815C249.283 160.417 249.257 165.993 249.309 171.595C249.309 172.731 249.076 173.092 247.863 173.092C236.375 173.041 224.913 173.066 213.426 173.066C212.341 169.865 211.748 166.509 210.896 163.257C209.76 158.894 208.753 154.505 207.669 150.143C207.514 149.549 207.437 148.981 207.437 148.361C207.462 144.566 207.462 140.797 207.437 137.003C207.437 136.383 207.514 135.815 207.927 135.325C208.805 134.24 209.14 132.975 209.218 131.607C209.502 126.367 209.786 121.152 210.07 115.912C210.147 114.388 210.225 112.891 210.328 111.394Z" fill="#D27943"/>
<path d="M207.515 77.0859C221.042 77.0859 234.595 77.0859 248.122 77.0601C249.051 77.0601 249.258 77.344 249.258 78.2217C249.232 88.7027 249.232 99.2095 249.258 109.69C249.258 110.465 249.129 110.826 248.225 110.826C235.756 110.801 223.288 110.801 210.845 110.801C210.664 110.801 210.509 110.775 210.328 110.749C210.483 108.839 210.638 106.902 210.767 104.992C211.025 100.758 211.335 96.5247 211.464 92.291C211.542 89.7353 210.483 87.4894 208.599 85.7856C207.67 84.9337 207.36 84.056 207.437 82.8685C207.515 80.9582 207.489 79.022 207.515 77.0859Z" fill="#D27943"/>
<path d="M178.523 81.6549C181.389 81.8356 184.254 81.7065 187.12 81.6549C187.507 81.3709 187.894 81.3709 188.23 81.7323C188.669 82.6875 188.514 83.6685 188.462 84.6495C188.152 89.1929 187.894 93.7364 187.739 98.2799C187.714 99.3899 187.636 100.5 187.146 101.533C186.707 109.174 186.268 116.815 185.855 124.457C181.983 124.379 178.085 124.353 174.212 124.224C173.205 124.198 172.25 123.734 171.347 123.269C171.037 122.882 170.985 122.417 171.037 121.927C171.269 119.836 171.398 117.77 171.527 115.679C171.579 115.086 171.682 114.492 172.018 113.976C172.224 113.692 172.612 113.717 172.973 113.459C172.612 113.046 171.837 113.046 171.863 112.323C172.224 106.489 172.896 100.707 173.309 94.8723C173.335 94.356 173.438 93.8397 173.825 93.4524C175.245 92.9103 176.716 92.962 178.11 93.4266C179.608 93.9171 180.408 95.1562 180.434 96.6793C180.537 101.068 180.563 105.457 180.434 109.845C180.382 111.626 179.349 112.762 177.62 113.304C179.349 113.098 180.46 111.833 180.692 109.871C180.795 108.89 180.744 107.883 180.744 106.902C180.744 103.804 180.769 100.707 180.744 97.6087C180.718 94.6141 179.556 93.2717 176.613 92.8845C175.348 92.7038 175.116 92.4973 175.09 91.1291C175.038 88.5992 175.064 86.0435 175.09 83.5136C175.09 81.4742 175.684 81.0095 177.697 81.3193C178.007 81.3709 178.265 81.4742 178.523 81.6549Z" fill="black"/>
<path d="M203.255 224.929C204.262 231.357 205.294 237.759 206.301 244.187C206.378 244.729 206.404 245.297 206.43 245.84C204.494 243.077 202.945 240.057 201.241 237.166C197.653 231.047 194.116 224.878 190.528 218.734C191.457 218.037 192.516 218.372 193.522 218.372C197.188 218.321 196.853 218.708 196.31 215.119C193.522 197.023 190.734 178.926 187.946 160.856C187.843 160.185 187.559 159.513 188.05 158.868C188.204 158.791 188.334 158.713 188.488 158.636C189.082 158.713 189.056 159.152 189.134 159.591C190.838 170.614 192.541 181.611 194.245 192.609C195.536 200.947 196.956 209.285 197.963 217.675C198.195 219.585 198.272 221.599 198.427 223.561C198.505 224.542 198.815 225.11 200.002 224.981C201.086 224.826 202.171 224.929 203.255 224.929Z" fill="#D27943"/>
<path d="M188.101 81.7324C187.765 81.7066 187.456 81.6808 187.12 81.6292C186.836 80.1061 186.552 78.583 186.242 77.0599C186.345 77.0341 186.449 77.0082 186.526 76.9824C192.025 77.0082 197.498 77.0341 202.996 77.0599C204.21 77.0599 205.397 77.0599 206.61 77.0857C206.61 79.3316 206.61 81.6033 206.61 84.03C204.726 82.8683 202.841 82.0422 200.776 81.8099C198.04 81.5001 195.303 81.7582 192.541 81.6808C191.973 81.6808 191.947 82.0422 191.947 82.4553C191.947 87.7732 191.947 93.1169 191.947 98.4349C191.947 98.9512 192.128 99.1319 192.644 99.261C195.587 100.01 196.723 104.269 194.632 106.489C193.729 107.47 190.76 107.935 189.288 107.264C187.791 106.592 187.146 105.353 187.275 103.727C187.326 103.004 187.301 102.256 187.326 101.533C187.301 100.164 188.204 99.4933 189.288 99.1061C190.295 98.7447 190.553 98.1767 190.553 97.1699C190.528 92.7039 190.528 88.2379 190.528 83.7718C190.528 82.2229 190.373 81.9389 188.901 81.9906C188.643 82.0422 188.359 81.9131 188.101 81.7324Z" fill="#F1F2F6"/>
<path d="M188.101 81.7326C190.967 81.5777 190.967 81.5777 190.967 84.4432C190.967 88.9609 190.941 93.4785 190.992 97.9704C190.992 98.7448 190.941 99.2095 189.96 99.287C188.643 99.3902 187.895 100.371 187.352 101.507C187.275 101.507 187.198 101.507 187.12 101.507C187.404 96.0601 187.688 90.613 187.972 85.166C188.049 84.056 188.075 82.8943 188.101 81.7326Z" fill="#6DB5DE"/>
<path d="M206.688 136.486C206.688 139.687 206.688 142.553 206.688 145.418C206.637 145.418 206.585 145.444 206.508 145.444C205.888 143.043 205.191 140.643 204.726 138.216C204.52 137.08 205.94 137.338 206.688 136.486Z" fill="#F1F2F6"/>
<path d="M207.152 136.461C207.152 140.127 207.152 143.792 207.152 147.458C207.101 147.458 207.023 147.458 206.972 147.458C206.972 143.792 206.972 140.101 206.972 136.435C207.049 136.435 207.101 136.435 207.152 136.461Z" fill="#5883B0"/>
<path d="M104.201 251.777C72.0873 251.777 39.999 251.777 7.88484 251.803C7.00712 251.803 6.69734 251.622 6.72316 250.693C6.77479 246.304 6.77479 241.916 6.72316 237.527C6.72316 236.701 6.95548 236.443 7.80738 236.443C24.7422 236.469 41.6769 236.495 58.5859 236.495C58.9731 236.495 59.3604 236.469 59.7476 236.469C74.2299 236.469 88.7123 236.469 103.195 236.469C103.53 241.554 103.866 246.666 104.201 251.777Z" fill="#D27943"/>
<path d="M102.42 224.619C93.1005 224.619 83.7812 224.619 74.4619 224.645C73.4551 224.645 73.2744 224.335 73.2744 223.406C73.3002 216.746 73.326 210.085 73.2744 203.425C73.2744 202.47 73.5067 202.186 74.4877 202.186C79.5217 202.238 84.5298 202.212 89.5638 202.212C89.3831 204.509 89.2799 206.833 88.9701 209.105C88.841 210.111 89.0217 210.395 90.0285 210.395C93.8491 210.344 97.644 210.344 101.465 210.344C101.774 215.119 102.084 219.869 102.42 224.619Z" fill="#9AE7E5"/>
<path d="M141.866 236.52C143.156 241.606 144.447 246.692 145.764 251.751C145.325 252.216 144.731 252.139 144.189 252.139C138.897 252.139 133.631 252.139 128.339 252.139C127.796 252.139 127.203 252.216 126.764 251.777C126.247 246.666 125.731 241.554 125.215 236.469C125.654 236.107 126.17 236.159 126.686 236.159C131.23 236.159 135.773 236.159 140.317 236.159C140.833 236.159 141.427 236.082 141.866 236.52Z" fill="#D27943"/>
<path d="M103.169 235.772C96.9731 235.772 90.7774 235.772 84.6076 235.823C83.8331 235.823 83.5491 235.617 83.575 234.817C83.6266 232.029 83.6266 229.215 83.575 226.427C83.5491 225.471 83.8073 225.188 84.7883 225.188C90.6741 225.239 96.56 225.213 102.472 225.213C102.678 228.724 102.911 232.235 103.169 235.772Z" fill="#5B74A7"/>
<path d="M145.971 252.449C146.306 253.765 146.616 255.108 147.029 256.398C147.236 257.044 146.926 257.199 146.461 257.353C141.427 260.348 136.367 263.343 131.333 266.363C130.353 266.957 129.346 267.551 128.21 268.222C127.848 264.556 127.513 261.071 127.177 257.586C127.281 255.856 126.842 254.178 126.79 252.474C127.177 252.139 127.668 252.165 128.132 252.165C133.579 252.165 139.026 252.165 144.473 252.165C144.99 252.139 145.506 252.19 145.971 252.449Z" fill="white"/>
<path d="M145.97 252.448C139.568 252.448 133.192 252.448 126.79 252.448C126.79 252.216 126.764 251.984 126.764 251.751C133.114 251.751 139.439 251.751 145.789 251.726C145.815 251.984 145.893 252.216 145.97 252.448Z" fill="#5881AE"/>
<path d="M141.866 236.521C136.315 236.495 130.739 236.469 125.189 236.469C125.189 236.262 125.163 236.03 125.163 235.824C130.197 235.824 135.257 235.824 140.291 235.824C140.807 235.824 141.478 236.03 141.504 235.152C141.607 235.591 141.736 236.056 141.866 236.521Z" fill="#5981AD"/>
<path d="M188.075 158.843C188.72 163.076 189.34 167.31 189.985 171.544C190.992 178.049 191.999 184.581 193.006 191.086C194.167 198.624 195.329 206.162 196.516 213.674C196.723 214.939 196.904 216.23 197.11 217.495C197.265 218.347 197.084 218.76 196.078 218.708C194.245 218.657 192.386 218.708 190.553 218.734C187.507 213.545 184.461 208.382 181.44 203.193C180.821 202.109 181.415 200.922 181.518 199.786C182.292 192.48 183.144 185.2 183.996 177.92C184.693 171.879 185.364 165.813 186.061 159.772C186.216 158.456 187.326 158.972 188.075 158.843Z" fill="#6DB5DE"/>
<path d="M168.455 251.803C167.035 246.718 165.822 241.606 164.66 236.469C164.97 236.185 165.357 236.159 165.744 236.159C168.765 236.159 171.785 236.159 174.831 236.159C175.141 236.159 175.425 236.237 175.683 236.366C178.368 241.503 181.027 246.614 183.712 251.752C183.273 252.216 182.705 252.139 182.137 252.139C178.11 252.139 174.083 252.139 170.081 252.139C169.488 252.139 168.945 252.165 168.455 251.803Z" fill="#D27943"/>
<path d="M169.617 257.147C169.256 255.598 168.894 254.023 168.559 252.474C168.946 252.113 169.436 252.139 169.901 252.139C174.186 252.139 178.472 252.139 182.731 252.139C183.17 252.139 183.583 252.19 183.996 252.371C184.977 253.997 185.855 255.675 186.603 257.405C182.112 261.303 177.62 265.201 172.999 269.202C172.018 265.459 171.063 261.871 170.133 258.283C170.03 257.87 170.082 257.379 169.617 257.147Z" fill="white"/>
<path d="M164.455 235.798C163.603 232.261 162.725 228.724 161.873 225.188C162.054 224.981 162.312 224.904 162.57 224.904C164.79 224.878 167.01 224.878 169.23 224.904C169.463 224.904 169.643 225.007 169.824 225.136C171.812 228.595 173.593 232.158 175.374 235.72C175.013 236.107 174.548 236.107 174.084 236.107C171.27 236.107 168.482 236.107 165.668 236.107C165.203 236.133 164.79 236.107 164.455 235.798Z" fill="#5B74A7"/>
<path d="M183.996 252.371C179.659 252.396 175.348 252.422 171.011 252.448C170.185 252.448 169.384 252.474 168.558 252.474C168.532 252.241 168.481 252.035 168.455 251.803C173.541 251.777 178.6 251.777 183.686 251.751C183.789 251.957 183.893 252.164 183.996 252.371Z" fill="#5881AE"/>
<path d="M164.454 235.798C168.094 235.772 171.734 235.746 175.374 235.72C175.477 235.927 175.58 236.133 175.684 236.34C172.018 236.366 168.326 236.417 164.661 236.443C164.583 236.237 164.506 236.03 164.454 235.798Z" fill="#5981AE"/>
<path d="M164.377 154.015C164.351 148.31 164.326 142.605 164.3 136.899C164.481 136.899 164.661 136.899 164.842 136.899C165.178 137.209 165.281 137.622 165.281 138.061C165.307 141.391 165.126 144.747 164.894 148.077C164.919 150.091 164.739 152.053 164.377 154.015Z" fill="#5981AD"/>
<path d="M164.893 148.103C164.868 144.386 164.868 140.643 164.842 136.925C165.255 136.899 165.694 136.745 165.978 137.209C165.694 140.591 165.41 143.999 165.1 147.38C165.1 147.613 164.971 147.845 164.893 148.103Z" fill="#DAE1EA"/>
<path d="M169.798 225.162C167.139 225.188 164.506 225.188 161.847 225.213C161.821 225.033 161.795 224.852 161.77 224.671C164.351 224.645 166.933 224.645 169.514 224.62C169.617 224.8 169.695 224.981 169.798 225.162Z" fill="#5881AE"/>
<path d="M178.523 81.6551C178.213 81.6809 177.929 81.7067 177.62 81.7067C175.399 81.7325 175.399 81.7325 175.399 84.0301C175.399 86.5599 175.425 89.0898 175.374 91.6197C175.374 92.3167 175.529 92.5491 176.277 92.5749C179.607 92.6265 181.079 94.1754 181.079 97.5056C181.079 101.507 181.079 105.483 181.079 109.484C181.079 111.807 179.736 113.563 177.723 113.898C177.284 113.976 176.639 114.208 176.509 113.588C176.38 112.891 177.103 113.021 177.516 112.943C178.988 112.633 180.046 111.523 180.046 109.974C180.098 105.508 180.098 101.042 180.046 96.5763C180.02 94.8466 178.704 93.6333 176.948 93.5817C175.916 93.5559 174.883 93.5817 173.851 93.6075C173.386 93.9431 172.895 93.9947 172.431 93.6075C172.508 93.2719 172.56 92.9105 172.637 92.5749C172.895 92.2393 173.308 92.2393 173.696 92.1102C174.393 91.2583 173.902 90.2515 174.057 89.348C174.057 88.9091 174.057 88.4703 174.031 88.0314C174.031 86.6116 174.238 85.2176 174.341 83.7977C174.522 81.526 175.038 79.3317 175.425 77.1116C175.503 77.0858 175.606 77.06 175.683 77.0341C176.303 76.6985 176.897 76.6469 177.49 77.0858C177.852 78.583 178.187 80.1061 178.523 81.6551Z" fill="#F1F2F6"/>
<path d="M172.483 93.5557C172.947 93.5557 173.438 93.5557 173.902 93.5557C173.489 98.1766 173.051 102.798 172.638 107.418C172.483 109.174 172.302 110.929 172.121 112.685C170.96 112.736 169.953 111.807 169.901 110.542C169.875 109.974 169.824 109.355 170.004 108.787C170.572 104.114 171.45 99.4932 172.224 94.8464C172.302 94.4076 172.405 93.9945 172.483 93.5557Z" fill="#6DB5DE"/>
<path d="M172.276 113.872C171.682 115.55 171.915 117.332 171.656 119.035C171.45 120.429 171.424 121.849 171.321 123.243C167.552 122.366 167.552 122.366 168.223 118.622C168.636 116.351 169.075 114.105 169.514 111.833C170.521 112.401 171.424 113.124 172.276 113.872Z" fill="#6DB5DE"/>
<path d="M160.995 124.482C159.756 124.482 158.517 124.482 157.278 124.482C156.89 124.482 156.426 124.482 156.426 123.94C156.452 123.398 156.942 123.476 157.304 123.476C159.859 123.476 162.441 123.476 164.996 123.476C165.358 123.476 165.874 123.372 165.9 123.914C165.926 124.56 165.358 124.457 164.971 124.457C163.654 124.482 162.312 124.482 160.995 124.482Z" fill="#0A0606"/>
<path d="M174.367 83.772C174.367 85.2434 174.393 86.6891 174.393 88.1606C174.238 88.6252 174.342 89.1157 174.316 89.5804C174.213 90.5614 174.367 91.5682 173.929 92.4975C173.516 92.4975 173.102 92.5233 172.689 92.5233C173.232 89.6062 173.8 86.6891 174.367 83.772Z" fill="#73B5DB"/>
<path d="M164.17 85.3205C163.706 85.3464 163.396 85.3722 163.319 84.9849C163.241 84.5977 163.525 84.4428 163.835 84.3912C165.461 84.0814 167.088 83.7716 168.714 83.4619C169.05 83.4102 169.359 83.4877 169.411 83.8233C169.488 84.1847 169.204 84.3654 168.895 84.417C167.294 84.7526 165.642 85.0366 164.17 85.3205Z" fill="#0A0606"/>
<path d="M172.276 113.872C171.088 113.562 170.211 112.84 169.514 111.859C169.514 110.8 169.72 109.793 170.004 108.787C170.056 110.439 170.107 112.091 172.095 112.685C172.198 112.762 172.302 112.84 172.405 112.891C172.844 113.072 173.747 112.762 173.567 113.614C173.463 114.234 172.766 113.872 172.276 113.872Z" fill="#F8F9FA"/>
<path d="M153.018 132.304C152.269 131.943 152.45 131.582 153.018 131.22C154.179 131.246 155.315 131.246 156.477 131.272C156.864 131.272 157.354 131.272 157.354 131.762C157.354 132.279 156.89 132.253 156.503 132.253C155.315 132.279 154.179 132.279 153.018 132.304Z" fill="#0C0808"/>
<path d="M153.018 129.103C152.424 128.742 152.218 128.38 153.044 128.019C154.231 128.019 155.419 128.045 156.606 128.045C156.968 128.045 157.355 128.071 157.329 128.535C157.329 128.974 156.942 129.026 156.58 129.052C155.393 129.077 154.205 129.103 153.018 129.103Z" fill="#180F0F"/>
<path d="M171.088 77.0858C171.088 77.9377 170.985 78.7379 170.417 79.6157C170.004 78.6863 169.643 77.886 169.281 77.0858C169.901 76.5436 170.495 76.5178 171.088 77.0858Z" fill="#F6F4F6"/>
<path d="M168.507 74.917C169.256 75.4333 169.979 75.9754 170.831 76.311C170.34 77.1113 169.695 76.7241 169.075 76.5434C168.895 76.0012 168.249 75.614 168.507 74.917Z" fill="#F7F4F3"/>
<path d="M169.049 76.5434C169.617 76.4143 170.262 76.7241 170.804 76.311C170.985 76.3885 171.166 76.4659 171.346 76.5692C171.269 76.7499 171.191 76.9306 171.088 77.1113C170.494 77.1113 169.901 77.1113 169.281 77.1113C169.23 76.9048 169.126 76.7241 169.049 76.5434Z" fill="#5E81AA"/>
<path d="M229.096 236.417C238.725 236.417 248.354 236.443 257.983 236.443C268.335 236.443 278.713 236.469 289.064 236.417C290.2 236.417 290.51 236.727 290.484 237.863C290.407 242.045 290.407 246.201 290.484 250.384C290.51 251.494 290.226 251.829 289.064 251.829C270.916 251.778 252.768 251.803 234.646 251.803C234.078 251.803 233.536 251.803 232.968 251.829C231.548 246.718 230.232 241.581 229.096 236.417Z" fill="#D27943"/>
<path d="M8.03987 178.488C6.62003 178.127 6.33608 176.449 6.54261 175.416C6.77494 174.254 7.67847 173.609 9.14994 173.609C36.798 173.609 64.4461 173.609 92.1201 173.609C92.2749 175.003 91.8361 176.345 91.8619 177.713C91.8877 178.256 91.6296 178.514 91.0874 178.462C90.9067 178.462 90.7518 178.462 90.5711 178.462C63.0779 178.488 35.5589 178.488 8.03987 178.488Z" fill="#505571"/>
<path d="M114.579 48.8953C113.985 48.8953 113.675 48.6114 113.624 48.1467C113.598 47.6562 113.882 47.3464 114.398 47.3206C114.863 47.2948 115.147 47.553 115.173 47.9918C115.25 48.4823 114.992 48.7921 114.579 48.8953Z" fill="#130B0B"/>
<path d="M164.919 56.0462C164.893 54.1617 164.944 52.2772 164.841 50.3927C164.79 49.4117 165.048 49.0761 166.106 49.102C170.52 49.1536 174.935 49.1278 179.324 49.1278C179.504 49.6441 179.685 50.1604 179.891 50.7283C176.561 50.8316 173.438 51.5286 170.314 52.2772C168.894 52.6128 167.5 53.0775 166.622 54.3683C165.77 54.6264 165.538 55.5041 164.919 56.0462Z" fill="#8F3600"/>
<path d="M174.47 62.9648C174.47 63.4811 174.186 63.7908 173.696 63.8167C173.179 63.8425 172.895 63.5327 172.895 63.0422C172.87 62.5775 173.128 62.3194 173.592 62.2677C174.083 62.2161 174.367 62.5001 174.47 62.9648Z" fill="#0C0807"/>
<path d="M177.491 77.0598C176.897 77.034 176.277 77.034 175.684 77.0082C175.735 76.8017 175.761 76.5951 175.813 76.3628C176.303 76.8017 177.284 75.9756 177.491 77.0598Z" fill="#617DA3"/>
<path d="M207.592 15C226.205 15 244.817 15 263.456 15C266.167 15 267.019 15.8519 267.019 18.5367C267.019 20.6793 267.044 22.8478 267.019 24.9905C266.993 27.0299 265.986 28.1141 263.946 28.1658C261.933 28.2174 259.893 28.1399 257.88 28.1916C257.131 28.2174 256.925 27.9334 256.925 27.2106C256.951 25.5842 256.899 23.9321 256.951 22.3057C256.976 21.5312 256.718 21.1698 255.918 21.2731C255.711 21.2989 255.479 21.2731 255.273 21.2731C223.701 21.2731 192.154 21.2731 160.582 21.2731C158.749 21.2731 158.982 21.0666 158.956 22.9511C158.956 24.3709 158.93 25.7908 158.956 27.2106C158.982 27.9076 158.801 28.2174 158.027 28.1916C155.703 28.1399 153.38 28.2174 151.057 28.1658C149.017 28.1141 148.036 27.0557 148.036 24.9647C148.036 22.6929 148.036 20.3954 148.036 18.1236C148.036 15.9293 148.966 15 151.186 15C170.005 15 188.798 15 207.592 15Z" fill="#9AE7E5"/>
<path d="M207.979 28.1657C192.335 28.1657 176.691 28.1399 161.047 28.1915C159.807 28.1915 159.394 27.8559 159.498 26.6168C159.601 25.3777 159.575 24.1127 159.498 22.8736C159.446 21.9959 159.782 21.6861 160.608 21.8152C160.788 21.841 160.943 21.8152 161.124 21.8152C192.283 21.8152 223.442 21.8152 254.627 21.8152C256.279 21.8152 256.279 21.8152 256.279 23.4674C256.279 24.7581 256.253 26.0489 256.279 27.3396C256.305 27.9592 256.072 28.2174 255.453 28.1657C255.117 28.1399 254.756 28.1657 254.42 28.1657C238.931 28.1657 223.468 28.1657 207.979 28.1657Z" fill="#FFD428"/>
<path d="M252.588 7.72008C252.588 9.6046 252.562 11.5149 252.614 13.3994C252.64 14.1223 252.381 14.3804 251.659 14.3546C250.239 14.303 248.819 14.303 247.399 14.3546C246.625 14.3804 246.47 14.0448 246.47 13.3736C246.496 9.50133 246.496 5.62905 246.47 1.75677C246.47 1.03394 246.702 0.77579 247.425 0.77579C248.767 0.82742 250.084 0.82742 251.426 0.77579C252.304 0.724159 252.64 0.982312 252.614 1.91166C252.536 3.8478 252.588 5.78394 252.588 7.72008Z" fill="#97A1BF"/>
<path d="M164.196 7.59102C164.196 5.70651 164.222 3.79619 164.196 1.91167C164.17 1.13722 164.325 0.724174 165.254 0.775805C166.623 0.85325 168.017 0.827435 169.385 0.775805C170.133 0.74999 170.34 1.03396 170.34 1.75678C170.314 5.62907 170.314 9.50135 170.34 13.3736C170.34 14.0706 170.211 14.4062 169.436 14.3546C168.017 14.303 166.597 14.303 165.177 14.3546C164.454 14.3804 164.196 14.1481 164.222 13.3994C164.222 11.4633 164.196 9.52716 164.196 7.59102Z" fill="#97A1BF"/>
<path d="M41.4451 224.645C32.9261 224.645 24.4328 224.62 15.9138 224.671C14.8038 224.671 14.3649 224.491 14.3907 223.226C14.4682 216.694 14.4424 210.163 14.3907 203.632C14.3907 202.625 14.5715 202.238 15.7073 202.238C32.8486 202.264 49.9899 202.264 67.1571 202.238C68.2413 202.238 68.3961 202.599 68.3961 203.554C68.3703 210.163 68.3445 216.798 68.3961 223.406C68.3961 224.465 68.0606 224.671 67.0796 224.671C58.5606 224.62 50.0157 224.645 41.4451 224.645Z" fill="#9AE7E5"/>
<path d="M41.5737 225.187C46.7626 225.187 51.9773 225.213 57.1661 225.162C58.1987 225.162 58.586 225.368 58.5602 226.478C58.4827 229.189 58.5085 231.899 58.5602 234.61C58.586 235.462 58.4053 235.823 57.4501 235.797C46.8659 235.772 36.3074 235.772 25.7232 235.797C24.9229 235.797 24.5873 235.617 24.5873 234.739C24.6389 231.899 24.6389 229.06 24.5873 226.22C24.5615 225.342 24.8971 225.162 25.6974 225.162C31.0153 225.213 36.2816 225.187 41.5737 225.187Z" fill="#5B74A7"/>
<path d="M188.41 49.1279C208.314 49.1279 228.192 49.1279 248.095 49.1021C249.102 49.1021 249.283 49.4376 249.283 50.3412C249.257 57.2597 249.231 64.1781 249.283 71.0966C249.283 72.0776 249.024 72.3099 248.069 72.3099C229.689 72.2841 211.283 72.2841 192.902 72.2841C192.489 72.2841 191.921 72.5423 191.715 71.8711C192.257 70.0382 192.205 68.2569 191.534 66.4499C190.243 62.9648 189.185 59.4023 187.739 55.9689C187.223 54.7814 186.629 53.6455 185.7 52.742C185.312 52.3806 185.158 52.1482 185.777 51.8385C186.913 51.2447 187.713 50.2121 188.41 49.1279Z" fill="#8F3600"/>
<path d="M185.416 69.0572C184.874 66.5273 184.409 64.2298 183.893 61.9322C183.738 61.3126 183.893 61.1578 184.487 61.2352C185.081 61.3126 185.674 61.261 186.268 61.4417C187.688 61.8806 188.772 62.655 189.082 64.1265C189.392 65.5722 188.643 66.708 187.585 67.6116C186.939 68.1279 186.216 68.5151 185.416 69.0572Z" fill="#FC9993"/>
<path d="M255.402 224.645C246.857 224.645 238.312 224.62 229.741 224.671C228.657 224.671 228.373 224.387 228.399 223.303C228.451 216.72 228.451 210.137 228.399 203.58C228.399 202.496 228.735 202.212 229.793 202.212C246.883 202.238 263.998 202.238 281.088 202.212C282.095 202.212 282.508 202.393 282.508 203.528C282.456 210.137 282.456 216.772 282.508 223.38C282.508 224.439 282.146 224.645 281.191 224.645C272.595 224.62 263.998 224.645 255.402 224.645Z" fill="#9AE7E5"/>
<path d="M255.453 235.798C250.29 235.798 245.127 235.772 239.964 235.823C239.009 235.823 238.621 235.668 238.647 234.584C238.725 231.796 238.699 228.982 238.647 226.194C238.621 225.394 238.905 225.188 239.68 225.188C250.29 225.213 260.926 225.213 271.536 225.188C272.362 225.188 272.542 225.471 272.542 226.246C272.517 229.086 272.491 231.925 272.542 234.765C272.568 235.643 272.259 235.849 271.432 235.823C266.114 235.772 260.771 235.798 255.453 235.798Z" fill="#5B74A7"/>
<path d="M59.5928 130.213C59.5928 126.754 59.5928 123.321 59.5928 119.861C59.696 119.861 59.7993 119.861 59.9025 119.861C59.9025 122.727 59.9025 125.566 59.9025 128.432C59.9025 128.922 59.7476 129.465 60.0832 129.929C61.374 132.459 63.2585 134.499 65.3754 136.306C67.8794 138.474 70.0479 140.978 72.3455 143.327C74.3332 145.367 76.8373 146.503 79.4446 147.355C82.4134 148.361 85.537 146.27 86.0791 143.172C87.1376 137.132 87.4474 131.065 86.9569 124.973C86.9311 124.534 86.9827 124.121 87.2151 123.734C87.2409 123.398 87.3699 123.114 87.7055 122.985C88.6607 129.774 88.196 136.512 87.0344 143.25C86.3373 147.251 82.3618 149.626 78.5927 148.129C75.5465 146.89 72.6811 145.367 70.3835 142.759C67.6213 139.61 64.4718 136.77 61.5289 133.776C60.5738 132.769 59.696 131.685 59.5928 130.213Z" fill="#5C84B0"/>
<path d="M65.246 63.636C65.1427 64.9526 64.7813 66.011 63.8262 66.7339C62.6128 67.6374 61.2189 68.2312 59.799 68.6958C58.3792 69.1605 57.1659 67.7149 57.7338 66.295C58.8439 63.507 60.0055 60.7447 61.193 58.0083C61.5802 57.1306 62.6645 56.9241 63.0001 57.6727C63.9552 59.6347 64.7813 61.6483 65.246 63.636Z" fill="#202B6D"/>
<path d="M87.2154 123.76C87.8866 130.213 87.5509 136.615 86.4925 142.992C85.8471 146.838 82.0781 149.007 78.464 147.458C75.3145 146.115 72.449 144.412 70.2289 141.675C67.9056 138.81 64.911 136.564 62.4069 133.853C61.3485 132.717 60.3159 131.556 60.1094 129.929C60.1094 126.935 60.1094 123.914 60.1094 120.688C60.8322 121.281 61.0645 121.952 61.3743 122.546C63.517 126.78 66.8213 129.568 71.5455 130.446C76.1665 131.323 80.1936 130.007 83.6787 126.883C84.8404 125.851 86.0279 124.818 87.2154 123.76Z" fill="#FEA8A7"/>
<path d="M107.894 85.5532C110.346 85.5532 111.998 86.5858 111.972 88.1606C111.947 90.6388 110.991 92.1619 109.442 92.1877C106.99 92.2652 105.338 91.2326 105.312 89.6578C105.286 87.1796 106.293 85.579 107.894 85.5532Z" fill="#010101"/>
<path d="M188.333 103.417C188.333 100.758 188.849 100.268 191.457 100.268C194.012 100.268 194.555 100.81 194.555 103.494C194.555 105.973 193.987 106.515 191.405 106.515C188.849 106.489 188.333 105.973 188.333 103.417Z" fill="#6DB5DE"/>
<path d="M173.928 92.4974C173.825 91.4648 174.135 90.4322 174.212 89.4254C174.264 89.2963 174.341 89.2963 174.419 89.4254C174.419 90.2515 174.444 91.1034 174.444 91.9295C174.444 92.2651 174.47 92.6265 173.928 92.4974Z" fill="#3D4245"/>
<path d="M174.393 89.3997H174.29H174.187C174.161 88.9609 174.058 88.522 174.367 88.1348C174.393 88.5736 174.393 88.9867 174.393 89.3997Z" fill="#576770"/>
<g clip-path="url(#clip0_818_10743)">
<path d="M64.5712 52.8035C61.9492 52.4143 55.2966 55.5075 51.7969 64.3489C48.2972 73.1903 49.6576 79.1012 56.3167 80.6475C62.8495 82.1653 65.518 77.8329 66.0578 76.2838C67.6408 71.7554 68.0202 63.8814 67.7502 59.525C67.4801 55.1686 67.1811 53.1908 64.5712 52.8035Z" fill="#FEA8A7"/>
<path d="M70.6804 76.2251C70.8032 77.8499 70.5471 79.1469 71.106 80.6206C71.7941 82.4308 73.2099 82.9069 73.2099 82.9069L73.0167 75.53L70.536 72.0027L69.9507 72.706C69.9472 72.7086 70.5684 74.754 70.6804 76.2251Z" fill="#FED0B0"/>
<path d="M77.9896 55.1128C80.5818 55.4943 85.9437 60.4039 86.6466 69.8032C87.3491 79.2055 84.3284 84.404 77.5905 83.9082C75.4399 83.7492 73.8142 83.4276 72.6565 82.6023C71.6312 81.3964 72.4138 79.1293 72.2444 76.5435C72.1639 75.2948 71.0836 73.6331 69.9544 72.6817C70.5289 68.4102 71.887 63.5214 73.0204 60.5402C74.5542 56.4984 75.4734 54.7429 77.9896 55.1128Z" fill="#FEA8A7"/>
<path d="M52.4394 62.859C52.4394 62.859 53.7854 65.6546 58.5317 67.6031C63.278 69.5515 67.4362 69.4813 67.4362 69.4813C67.4362 69.4813 67.9045 64.5598 67.827 62.0439C67.7495 59.5281 63.5539 56.8182 62.6748 56.6536C61.7958 56.4889 57.4655 55.9738 57.4655 55.9738C57.4655 55.9738 55.9055 57.3461 54.8284 58.8321C53.6756 60.4278 52.4394 62.859 52.4394 62.859Z" fill="url(#paint0_linear_818_10743)"/>
<path d="M50.5688 68.0553C50.5688 68.0553 52.7505 71.3011 53.7849 73.5305C54.8193 75.7599 56.7936 80.7388 56.7936 80.7388C56.7936 80.7388 59.8024 81.5067 62.3768 80.2668C64.0133 79.4747 65.16 79.0028 66.1635 75.977C67.167 72.9512 61.167 70.4208 60.1721 70.2417C59.1802 70.063 54.8335 66.712 54.3106 65.921C53.7877 65.1301 52.168 63.5014 52.168 63.5014C52.168 63.5014 51.533 65.0018 51.3573 65.5033C51.1852 66.0022 50.5688 68.0553 50.5688 68.0553Z" fill="url(#paint1_linear_818_10743)"/>
<path d="M72.1402 81.2564C72.1402 81.2564 74.1216 81.486 78.8549 78.9401C83.5882 76.3941 86.7376 71.5755 86.7376 71.5755C86.7376 71.5755 86.6528 69.7825 86.6007 69.2868C86.5517 68.7916 80.2457 68.6224 78.5689 68.9237C76.8894 69.2215 70.4716 69.7065 70.4716 69.7065C70.4716 69.7065 69.9608 72.5772 69.9471 72.7087C70.0251 72.7268 71.7988 74.6709 72.0419 75.7082C72.3776 77.1387 72.1849 78.6317 72.1263 79.3032C72.0511 80.1865 72.1402 81.2564 72.1402 81.2564Z" fill="url(#paint2_linear_818_10743)"/>
<path d="M56.6347 62.2382C56.3565 61.963 55.9702 61.4382 56.2728 61.1642C56.5754 60.8902 57.1967 61.4227 57.498 61.7294C57.8024 62.0367 58.3268 62.6134 58.3268 62.6134L60.9676 62.6947C60.9676 62.6947 59.1113 60.5175 58.7656 60.1139C58.42 59.7103 57.6675 58.8969 58.0984 58.5554C58.5293 58.2139 59.1134 58.9706 59.4317 59.3701C59.75 59.7695 61.9453 62.0262 61.9453 62.0262C61.9453 62.0262 61.6775 60.1494 61.587 59.5795C61.4991 59.0132 61.178 57.8552 61.7217 57.7328C62.2653 57.6104 62.4134 58.742 62.5806 59.3794C62.7447 60.0164 63.7286 63.7232 63.7286 63.7232C63.7286 63.7232 64.2022 64.4507 64.7893 64.2262C65.3764 64.0016 68.7151 61.3307 68.7151 61.3307L70.2783 50.7783C70.2783 50.7783 70.8159 50.6549 71.5337 50.736C72.2514 50.8172 72.8382 51.1673 72.8382 51.1673L71.3427 61.7859C71.3427 61.7859 73.585 65.4509 74.1661 65.6542C74.7473 65.8575 75.2156 66.0467 75.5326 65.8618C75.8527 65.6775 78.239 62.8339 78.4916 62.3162C78.7438 61.8015 78.4187 60.1179 78.8511 59.9506C79.2835 59.7833 79.442 60.4784 79.5113 60.9829C79.5802 61.4905 79.6727 62.0265 79.6727 62.0265C79.6727 62.0265 80.32 61.9788 80.7075 61.9228C81.0956 61.8637 81.5814 61.9375 81.5927 62.2313C81.607 62.5255 80.5923 62.8653 80.1207 63.0857C79.6492 63.306 78.9313 63.43 78.9775 63.903C79.0237 64.376 79.9564 64.3718 80.5773 64.4972C81.1987 64.6196 81.5862 64.7685 81.5345 65.1087C81.4823 65.4518 80.4892 65.4655 79.7128 65.3817C78.9394 65.2984 77.9181 65.109 77.9181 65.109C77.9181 65.109 77.2028 65.9727 77.1622 66.24C77.1216 66.5072 78.6884 66.9503 79.6009 67.263C80.5164 67.5761 82.6339 68.0346 82.5293 68.5189C82.4277 69.0036 81.7041 68.8377 81.2027 68.805C80.7012 68.7723 79.5159 68.2722 79.493 68.5452C79.4702 68.8183 80.4306 70.0423 79.9317 70.2585C79.4328 70.4747 78.9241 69.4064 78.561 68.9131C78.1979 68.4199 77.9512 68.1214 77.9512 68.1214C77.9512 68.1214 74.2491 67.6023 74.1952 67.7526C74.1443 67.9033 76.042 71.342 76.4454 71.5493C76.8519 71.7571 78.8758 72.4437 79.5996 72.6686C80.323 72.8966 81.0294 73.237 80.9177 73.5835C80.806 73.93 79.9265 73.7684 79.3283 73.6775L77.7036 73.4306C77.7036 73.4306 79.4065 75.4727 79.7564 76.0323C80.1064 76.5919 81.6068 78.249 81.0053 78.5677C80.4044 78.8834 78.4846 76.2647 78.0134 75.7674C77.5422 75.2702 76.4048 74.1063 76.2754 74.2016C76.146 74.2968 76.8272 75.9475 76.9683 76.348C77.1094 76.7485 77.7657 78.0723 77.1081 78.2489C76.5965 78.3855 75.6349 75.7384 75.4618 75.7121C75.2917 75.6862 74.8255 78.1816 74.4149 78.0012C74.0043 77.8207 74.1108 76.9359 74.287 75.3876C74.4633 73.8392 74.9057 73.0334 74.6201 72.6234C74.3309 72.216 73.3023 69.5804 72.8268 69.0701C72.3514 68.5598 69.5069 64.9524 69.5069 64.9524C69.5069 64.9524 65.6015 67.5092 64.8041 67.9721C64.0038 68.4346 62.4684 69.3383 62.2823 69.6021C62.0962 69.8659 61.7527 70.7768 61.7314 71.1215C61.7066 71.4688 62.2957 73.7455 62.4141 74.1115C62.532 74.4805 62.9123 75.8214 62.4351 75.8949C61.9579 75.9684 61.5735 74.6548 61.402 74.2497C61.2306 73.8446 60.8069 72.7892 60.8069 72.7892C60.8069 72.7892 59.9476 74.9887 59.622 75.5979C59.2969 76.204 58.4805 78.1211 57.9659 77.6639C57.4513 77.2067 57.8757 76.336 58.3102 75.3985C58.7447 74.461 59.0938 73.697 59.084 73.5775C59.0742 73.4579 56.969 74.2471 56.5593 74.449C56.1501 74.6477 54.9967 75.1435 54.8078 74.6488C54.6219 74.1545 55.9006 73.5908 56.3721 73.3704C56.8437 73.15 59.8092 71.8515 59.8092 71.8515C59.8092 71.8515 59.884 71.5429 60.1785 70.7706C60.4729 69.9982 60.601 69.5237 60.601 69.5237L58.8177 69.3397C58.8177 69.3397 57.6156 70.1761 57.2822 70.4485C56.9492 70.7179 56.1677 71.4442 55.9773 70.9803C55.7873 70.5134 57.1481 69.4091 57.1481 69.4091C57.1481 69.4091 56.3005 69.2213 55.8707 69.187C55.4384 69.1493 54.9206 69.1017 54.9542 68.6967C54.9873 68.2947 56.6036 68.2079 57.3973 68.1576C58.1909 68.1074 60.9283 67.9424 60.9283 67.9424L63.5629 66.1431C63.5629 66.1431 62.2194 64.2302 61.9684 64.1641C61.7175 64.098 58.6083 63.8275 58.6083 63.8275C58.6083 63.8275 57.896 64.3033 57.5672 64.5454C57.2383 64.7875 56.6466 65.4307 56.3264 65.0434C56.0063 64.6561 56.5036 64.2657 56.7789 63.9875L57.3899 63.2384" fill="#FEE5C3"/>
<path d="M64.7892 64.2291C65.3763 64.0045 68.715 61.3336 68.715 61.3336L70.4166 49.8702C70.4166 49.8702 70.9542 49.7469 71.672 49.828C72.3897 49.9091 72.9765 50.2592 72.9765 50.2592L71.3425 61.7888C71.3425 61.7888 73.5848 65.4539 74.166 65.6571C74.7471 65.8604 74.2499 67.5992 74.199 67.7499C74.1482 67.9007 73.3087 69.5812 72.8332 69.0709C72.3578 68.5606 69.5072 64.9523 69.5072 64.9523C69.5072 64.9523 65.6018 67.5091 64.8045 67.972C64.0041 68.4345 63.5671 66.1374 63.5671 66.1374C63.5671 66.1374 64.202 64.4537 64.7892 64.2291Z" fill="url(#paint3_linear_818_10743)"/>
<path d="M68.7623 57.8926C68.6615 58.5763 69.2907 58.6067 70.4446 58.782C71.5986 58.9574 72.1623 59.1114 72.2697 58.4256C72.3927 57.6365 71.6838 57.681 70.6149 57.5186C69.5429 57.3557 68.8728 57.1451 68.7623 57.8926ZM69.0948 55.8678C68.994 56.5515 69.6232 56.5819 70.7772 56.7572C71.9311 56.9326 72.4949 57.0866 72.6022 56.4008C72.7252 55.6117 72.0163 55.6562 70.9474 55.4938C69.8759 55.3278 69.2058 55.1173 69.0948 55.8678ZM69.4036 53.8362C69.3028 54.52 69.9319 54.5503 71.0859 54.7257C72.2398 54.901 72.8036 55.0551 72.9109 54.3692C73.0339 53.5802 72.325 53.6247 71.2561 53.4622C70.1842 53.2993 69.5145 53.0857 69.4036 53.8362ZM69.7026 51.8685C69.6018 52.5522 70.231 52.5826 71.3849 52.7579C72.5388 52.9333 73.1026 53.0873 73.21 52.4015C73.333 51.6124 72.6241 51.6569 71.5552 51.4945C70.4832 51.3316 69.8131 51.121 69.7026 51.8685Z" fill="#F2A159"/>
</g>
<defs>
<linearGradient id="paint0_linear_818_10743" x1="62.775" y1="56.6797" x2="59.3959" y2="67.9842" gradientUnits="userSpaceOnUse">
<stop offset="0.294" stop-color="#FEA8A7"/>
<stop offset="0.548" stop-color="#FEA4A2"/>
<stop offset="0.827" stop-color="#FE9895"/>
</linearGradient>
<linearGradient id="paint1_linear_818_10743" x1="62.6467" y1="68.667" x2="53.0139" y2="74.5377" gradientUnits="userSpaceOnUse">
<stop offset="0.404" stop-color="#FEA8A7"/>
<stop offset="0.609" stop-color="#FEA3A1"/>
<stop offset="0.824" stop-color="#FE9895"/>
</linearGradient>
<linearGradient id="paint2_linear_818_10743" x1="75.766" y1="67.3101" x2="80.6943" y2="78.1949" gradientUnits="userSpaceOnUse">
<stop offset="0.352" stop-color="#FEA8A7"/>
<stop offset="0.794" stop-color="#FE9B99"/>
<stop offset="0.893" stop-color="#FE9895"/>
</linearGradient>
<linearGradient id="paint3_linear_818_10743" x1="71.5203" y1="49.804" x2="68.6559" y2="68.6533" gradientUnits="userSpaceOnUse">
<stop offset="0.31" stop-color="#FED3B3"/>
<stop offset="0.647" stop-color="#FED5B5"/>
<stop offset="0.769" stop-color="#FEDCBB"/>
<stop offset="0.841" stop-color="#FEE5C3"/>
</linearGradient>
<clipPath id="clip0_818_10743">
<rect width="39.3158" height="39.3158" fill="white" transform="translate(52.7158 44.605) rotate(8.64067)"/>
</clipPath>
</defs>
</svg>
